<mxfile host="www.draw.io" modified="2019-10-18T23:48:20.457Z" agent="Mozilla/5.0 (Windows NT 10.0; Win64; x64) AppleWebKit/537.36 (KHTML, like Gecko) Chrome/77.0.3865.120 Safari/537.36" etag="hoxCtWIgAeRQS9utv10a" version="12.1.3" type="github" pages="1">
  <diagram name="Page-1" id="ad52d381-51e7-2e0d-a935-2d0ddd2fd229">
    <mxGraphModel dx="1463" dy="763" grid="1" gridSize="10" guides="1" tooltips="1" connect="1" arrows="1" fold="1" page="1" pageScale="1" pageWidth="2336" pageHeight="1654" background="#ffffff" math="0" shadow="0">
      <root>
        <mxCell id="0"/>
        <mxCell id="1" parent="0"/>
        <mxCell id="2c924340bb9dbf6c-1" value="&lt;span&gt;f_name&lt;/span&gt;" style="whiteSpace=wrap;html=1;rounded=1;shadow=1;comic=0;labelBackgroundColor=none;strokeColor=#000000;strokeWidth=2;fillColor=#FFFFFF;fontFamily=Verdana;fontSize=12;fontColor=#000000;align=center;arcSize=50;" parent="1" vertex="1">
          <mxGeometry x="290" y="405" width="100" height="20" as="geometry"/>
        </mxCell>
        <mxCell id="2c924340bb9dbf6c-10" value="&lt;span&gt;l-name&lt;/span&gt;" style="whiteSpace=wrap;html=1;rounded=1;shadow=1;comic=0;labelBackgroundColor=none;strokeColor=#000000;strokeWidth=2;fillColor=#FFFFFF;fontFamily=Verdana;fontSize=12;fontColor=#000000;align=center;arcSize=50;" parent="1" vertex="1">
          <mxGeometry x="330" y="365" width="100" height="20" as="geometry"/>
        </mxCell>
        <mxCell id="xfP3-g7Ia95GO5ueu19k-70" style="edgeStyle=none;rounded=0;orthogonalLoop=1;jettySize=auto;html=1;exitX=0.75;exitY=1;exitDx=0;exitDy=0;entryX=-0.003;entryY=0.409;entryDx=0;entryDy=0;entryPerimeter=0;startArrow=none;startFill=0;endArrow=none;endFill=0;" parent="1" source="2c924340bb9dbf6c-11" target="xfP3-g7Ia95GO5ueu19k-62" edge="1">
          <mxGeometry relative="1" as="geometry"/>
        </mxCell>
        <mxCell id="2c924340bb9dbf6c-11" value="&lt;span&gt;total price&lt;/span&gt;" style="whiteSpace=wrap;html=1;rounded=1;shadow=1;comic=0;labelBackgroundColor=none;strokeColor=#000000;strokeWidth=2;fillColor=#FFFFFF;fontFamily=Verdana;fontSize=12;fontColor=#000000;align=center;arcSize=50;" parent="1" vertex="1">
          <mxGeometry x="854" y="377.5" width="100" height="20" as="geometry"/>
        </mxCell>
        <mxCell id="xfP3-g7Ia95GO5ueu19k-72" style="edgeStyle=none;rounded=0;orthogonalLoop=1;jettySize=auto;html=1;exitX=0.5;exitY=1;exitDx=0;exitDy=0;entryX=0;entryY=0;entryDx=28.5;entryDy=0;entryPerimeter=0;startArrow=none;startFill=0;endArrow=none;endFill=0;" parent="1" source="2c924340bb9dbf6c-14" target="xfP3-g7Ia95GO5ueu19k-62" edge="1">
          <mxGeometry relative="1" as="geometry"/>
        </mxCell>
        <mxCell id="2c924340bb9dbf6c-14" value="&lt;span&gt;ship date&lt;/span&gt;" style="whiteSpace=wrap;html=1;rounded=1;shadow=1;comic=0;labelBackgroundColor=none;strokeColor=#000000;strokeWidth=2;fillColor=#FFFFFF;fontFamily=Verdana;fontSize=12;fontColor=#000000;align=center;arcSize=50;" parent="1" vertex="1">
          <mxGeometry x="940" y="345" width="100" height="20" as="geometry"/>
        </mxCell>
        <mxCell id="xfP3-g7Ia95GO5ueu19k-73" style="edgeStyle=none;rounded=0;orthogonalLoop=1;jettySize=auto;html=1;exitX=0.5;exitY=1;exitDx=0;exitDy=0;entryX=0;entryY=0;entryDx=85.5;entryDy=0;entryPerimeter=0;startArrow=none;startFill=0;endArrow=none;endFill=0;" parent="1" source="2c924340bb9dbf6c-15" target="xfP3-g7Ia95GO5ueu19k-62" edge="1">
          <mxGeometry relative="1" as="geometry"/>
        </mxCell>
        <mxCell id="2c924340bb9dbf6c-15" value="&lt;span&gt;shipper_id&lt;/span&gt;" style="whiteSpace=wrap;html=1;rounded=1;shadow=1;comic=0;labelBackgroundColor=none;strokeColor=#000000;strokeWidth=2;fillColor=#FFFFFF;fontFamily=Verdana;fontSize=12;fontColor=#000000;align=center;arcSize=50;" parent="1" vertex="1">
          <mxGeometry x="1077.5" y="350" width="100" height="20" as="geometry"/>
        </mxCell>
        <mxCell id="xfP3-g7Ia95GO5ueu19k-78" style="edgeStyle=none;rounded=0;orthogonalLoop=1;jettySize=auto;html=1;exitX=0.25;exitY=0;exitDx=0;exitDy=0;entryX=0;entryY=0;entryDx=85.5;entryDy=70;entryPerimeter=0;startArrow=none;startFill=0;endArrow=none;endFill=0;" parent="1" source="2c924340bb9dbf6c-16" target="xfP3-g7Ia95GO5ueu19k-62" edge="1">
          <mxGeometry relative="1" as="geometry"/>
        </mxCell>
        <mxCell id="2c924340bb9dbf6c-16" value="&lt;span&gt;cart_id&lt;/span&gt;" style="whiteSpace=wrap;html=1;rounded=1;shadow=1;comic=0;labelBackgroundColor=none;strokeColor=#000000;strokeWidth=2;fillColor=#FFFFFF;fontFamily=Verdana;fontSize=12;fontColor=#000000;align=center;arcSize=50;" parent="1" vertex="1">
          <mxGeometry x="1082.5" y="580.5" width="100" height="20" as="geometry"/>
        </mxCell>
        <mxCell id="xfP3-g7Ia95GO5ueu19k-79" style="edgeStyle=none;rounded=0;orthogonalLoop=1;jettySize=auto;html=1;exitX=0.25;exitY=0;exitDx=0;exitDy=0;entryX=1;entryY=1;entryDx=0;entryDy=0;entryPerimeter=0;startArrow=none;startFill=0;endArrow=none;endFill=0;" parent="1" source="2c924340bb9dbf6c-17" target="xfP3-g7Ia95GO5ueu19k-62" edge="1">
          <mxGeometry relative="1" as="geometry"/>
        </mxCell>
        <mxCell id="2c924340bb9dbf6c-17" value="&lt;span&gt;order creation date&lt;/span&gt;" style="whiteSpace=wrap;html=1;rounded=1;shadow=1;comic=0;labelBackgroundColor=none;strokeColor=#000000;strokeWidth=2;fillColor=#FFFFFF;fontFamily=Verdana;fontSize=12;fontColor=#000000;align=center;arcSize=50;" parent="1" vertex="1">
          <mxGeometry x="1100" y="520" width="100" height="38" as="geometry"/>
        </mxCell>
        <mxCell id="xfP3-g7Ia95GO5ueu19k-77" style="edgeStyle=none;rounded=0;orthogonalLoop=1;jettySize=auto;html=1;exitX=0.5;exitY=0;exitDx=0;exitDy=0;entryX=0.5;entryY=1;entryDx=0;entryDy=0;entryPerimeter=0;startArrow=none;startFill=0;endArrow=none;endFill=0;" parent="1" source="2c924340bb9dbf6c-18" target="xfP3-g7Ia95GO5ueu19k-62" edge="1">
          <mxGeometry relative="1" as="geometry"/>
        </mxCell>
        <mxCell id="2c924340bb9dbf6c-18" value="&lt;span&gt;user_id&lt;/span&gt;" style="whiteSpace=wrap;html=1;rounded=1;shadow=1;comic=0;labelBackgroundColor=none;strokeColor=#000000;strokeWidth=2;fillColor=#FFFFFF;fontFamily=Verdana;fontSize=12;fontColor=#000000;align=center;arcSize=50;" parent="1" vertex="1">
          <mxGeometry x="1022.5" y="622.5" width="100" height="20" as="geometry"/>
        </mxCell>
        <mxCell id="xfP3-g7Ia95GO5ueu19k-76" style="edgeStyle=none;rounded=0;orthogonalLoop=1;jettySize=auto;html=1;exitX=0;exitY=0.75;exitDx=0;exitDy=0;entryX=0;entryY=0;entryDx=114;entryDy=17.5;entryPerimeter=0;startArrow=none;startFill=0;endArrow=none;endFill=0;" parent="1" source="2c924340bb9dbf6c-19" target="xfP3-g7Ia95GO5ueu19k-62" edge="1">
          <mxGeometry relative="1" as="geometry"/>
        </mxCell>
        <mxCell id="2c924340bb9dbf6c-19" value="order_id" style="whiteSpace=wrap;html=1;rounded=1;shadow=1;comic=0;labelBackgroundColor=none;strokeColor=#000000;strokeWidth=2;fillColor=#FFFFFF;fontFamily=Verdana;fontSize=12;fontColor=#000000;align=center;arcSize=50;" parent="1" vertex="1">
          <mxGeometry x="1157" y="397.5" width="100" height="20" as="geometry"/>
        </mxCell>
        <mxCell id="t0DPVlEd7K-99LzI1tXL-28" style="edgeStyle=none;rounded=0;orthogonalLoop=1;jettySize=auto;html=1;exitX=0;exitY=0.75;exitDx=0;exitDy=0;entryX=1;entryY=0.5;entryDx=0;entryDy=0;endArrow=none;endFill=0;" parent="1" source="Zrgbr4FFBKcwLw_hIRoL-121" target="t0DPVlEd7K-99LzI1tXL-27" edge="1">
          <mxGeometry relative="1" as="geometry">
            <mxPoint x="260" y="610" as="sourcePoint"/>
          </mxGeometry>
        </mxCell>
        <mxCell id="t0DPVlEd7K-99LzI1tXL-29" style="edgeStyle=none;rounded=0;orthogonalLoop=1;jettySize=auto;html=1;exitX=0.25;exitY=1;exitDx=0;exitDy=0;entryX=1;entryY=0.25;entryDx=0;entryDy=0;endArrow=none;endFill=0;" parent="1" source="Zrgbr4FFBKcwLw_hIRoL-121" target="t0DPVlEd7K-99LzI1tXL-24" edge="1">
          <mxGeometry relative="1" as="geometry">
            <mxPoint x="282.62699999999995" y="645.0699999999999" as="sourcePoint"/>
          </mxGeometry>
        </mxCell>
        <mxCell id="t0DPVlEd7K-99LzI1tXL-30" style="edgeStyle=none;rounded=0;orthogonalLoop=1;jettySize=auto;html=1;exitX=0.5;exitY=1;exitDx=0;exitDy=0;entryX=0.5;entryY=0;entryDx=0;entryDy=0;endArrow=none;endFill=0;" parent="1" source="Zrgbr4FFBKcwLw_hIRoL-121" target="t0DPVlEd7K-99LzI1tXL-25" edge="1">
          <mxGeometry relative="1" as="geometry">
            <mxPoint x="320.5" y="645" as="sourcePoint"/>
          </mxGeometry>
        </mxCell>
        <mxCell id="SIIoMTfQmOXYOQuS74W--1" style="rounded=0;orthogonalLoop=1;jettySize=auto;html=1;exitX=0;exitY=0.5;exitDx=0;exitDy=0;entryX=1;entryY=0.5;entryDx=0;entryDy=0;endArrow=none;endFill=0;" parent="1" source="t0DPVlEd7K-99LzI1tXL-1" target="t0DPVlEd7K-99LzI1tXL-3" edge="1">
          <mxGeometry relative="1" as="geometry"/>
        </mxCell>
        <mxCell id="SIIoMTfQmOXYOQuS74W--3" style="edgeStyle=none;rounded=0;orthogonalLoop=1;jettySize=auto;html=1;exitX=0.5;exitY=1;exitDx=0;exitDy=0;entryX=0.5;entryY=0;entryDx=0;entryDy=0;endArrow=none;endFill=0;" parent="1" source="t0DPVlEd7K-99LzI1tXL-1" target="t0DPVlEd7K-99LzI1tXL-32" edge="1">
          <mxGeometry relative="1" as="geometry"/>
        </mxCell>
        <mxCell id="SIIoMTfQmOXYOQuS74W--4" style="edgeStyle=none;rounded=0;orthogonalLoop=1;jettySize=auto;html=1;exitX=0.75;exitY=1;exitDx=0;exitDy=0;entryX=0.5;entryY=0;entryDx=0;entryDy=0;endArrow=none;endFill=0;" parent="1" source="t0DPVlEd7K-99LzI1tXL-1" target="t0DPVlEd7K-99LzI1tXL-33" edge="1">
          <mxGeometry relative="1" as="geometry"/>
        </mxCell>
        <mxCell id="SIIoMTfQmOXYOQuS74W--22" style="edgeStyle=none;rounded=0;orthogonalLoop=1;jettySize=auto;html=1;exitX=1;exitY=0.5;exitDx=0;exitDy=0;entryX=0;entryY=0.5;entryDx=0;entryDy=0;endArrow=classic;endFill=1;startArrow=ERone;startFill=0;" parent="1" source="t0DPVlEd7K-99LzI1tXL-1" target="SIIoMTfQmOXYOQuS74W--21" edge="1">
          <mxGeometry relative="1" as="geometry"/>
        </mxCell>
        <mxCell id="SIIoMTfQmOXYOQuS74W--25" style="edgeStyle=none;rounded=0;orthogonalLoop=1;jettySize=auto;html=1;exitX=1;exitY=0.75;exitDx=0;exitDy=0;entryX=0;entryY=0;entryDx=0;entryDy=0;endArrow=classic;endFill=1;startArrow=ERone;startFill=0;" parent="1" source="t0DPVlEd7K-99LzI1tXL-1" target="SIIoMTfQmOXYOQuS74W--24" edge="1">
          <mxGeometry relative="1" as="geometry"/>
        </mxCell>
        <mxCell id="xfP3-g7Ia95GO5ueu19k-172" style="edgeStyle=none;rounded=0;orthogonalLoop=1;jettySize=auto;html=1;exitX=0;exitY=0.25;exitDx=0;exitDy=0;entryX=0.75;entryY=1;entryDx=0;entryDy=0;startArrow=none;startFill=0;endArrow=none;endFill=0;" parent="1" source="t0DPVlEd7K-99LzI1tXL-1" target="2c924340bb9dbf6c-1" edge="1">
          <mxGeometry relative="1" as="geometry"/>
        </mxCell>
        <mxCell id="xfP3-g7Ia95GO5ueu19k-173" style="edgeStyle=none;rounded=0;orthogonalLoop=1;jettySize=auto;html=1;exitX=0.25;exitY=0;exitDx=0;exitDy=0;entryX=0.5;entryY=1;entryDx=0;entryDy=0;startArrow=none;startFill=0;endArrow=none;endFill=0;" parent="1" source="t0DPVlEd7K-99LzI1tXL-1" target="2c924340bb9dbf6c-10" edge="1">
          <mxGeometry relative="1" as="geometry"/>
        </mxCell>
        <mxCell id="t0DPVlEd7K-99LzI1tXL-1" value="Customer" style="rounded=0;whiteSpace=wrap;html=1;" parent="1" vertex="1">
          <mxGeometry x="460" y="445" width="120" height="60" as="geometry"/>
        </mxCell>
        <mxCell id="t0DPVlEd7K-99LzI1tXL-10" style="rounded=0;orthogonalLoop=1;jettySize=auto;html=1;exitX=0;exitY=0.5;exitDx=0;exitDy=0;entryX=1;entryY=0.5;entryDx=0;entryDy=0;" parent="1" source="t0DPVlEd7K-99LzI1tXL-3" target="t0DPVlEd7K-99LzI1tXL-7" edge="1">
          <mxGeometry relative="1" as="geometry"/>
        </mxCell>
        <mxCell id="t0DPVlEd7K-99LzI1tXL-11" style="rounded=0;orthogonalLoop=1;jettySize=auto;html=1;exitX=0;exitY=0;exitDx=0;exitDy=0;entryX=1;entryY=0.5;entryDx=0;entryDy=0;" parent="1" source="t0DPVlEd7K-99LzI1tXL-3" target="t0DPVlEd7K-99LzI1tXL-6" edge="1">
          <mxGeometry relative="1" as="geometry"/>
        </mxCell>
        <mxCell id="t0DPVlEd7K-99LzI1tXL-13" style="rounded=0;orthogonalLoop=1;jettySize=auto;html=1;exitX=0;exitY=0;exitDx=0;exitDy=0;entryX=1;entryY=0.5;entryDx=0;entryDy=0;" parent="1" source="t0DPVlEd7K-99LzI1tXL-3" target="t0DPVlEd7K-99LzI1tXL-12" edge="1">
          <mxGeometry relative="1" as="geometry"/>
        </mxCell>
        <mxCell id="t0DPVlEd7K-99LzI1tXL-14" style="rounded=0;orthogonalLoop=1;jettySize=auto;html=1;exitX=0.5;exitY=0;exitDx=0;exitDy=0;entryX=1;entryY=0.5;entryDx=0;entryDy=0;" parent="1" source="t0DPVlEd7K-99LzI1tXL-3" target="t0DPVlEd7K-99LzI1tXL-4" edge="1">
          <mxGeometry relative="1" as="geometry"/>
        </mxCell>
        <mxCell id="t0DPVlEd7K-99LzI1tXL-15" style="rounded=0;orthogonalLoop=1;jettySize=auto;html=1;exitX=0;exitY=1;exitDx=0;exitDy=0;entryX=1;entryY=0.25;entryDx=0;entryDy=0;" parent="1" source="t0DPVlEd7K-99LzI1tXL-3" target="t0DPVlEd7K-99LzI1tXL-5" edge="1">
          <mxGeometry relative="1" as="geometry"/>
        </mxCell>
        <mxCell id="t0DPVlEd7K-99LzI1tXL-3" value="eircode" style="ellipse;shape=doubleEllipse;whiteSpace=wrap;html=1;shadow=1;comic=0;strokeWidth=1;" parent="1" vertex="1">
          <mxGeometry x="170" y="425" width="100" height="60" as="geometry"/>
        </mxCell>
        <mxCell id="t0DPVlEd7K-99LzI1tXL-4" value="&lt;span&gt;country&lt;/span&gt;" style="whiteSpace=wrap;html=1;rounded=1;shadow=1;comic=0;labelBackgroundColor=none;strokeColor=#000000;strokeWidth=2;fillColor=#FFFFFF;fontFamily=Verdana;fontSize=12;fontColor=#000000;align=center;arcSize=50;dashed=1;dashPattern=1 1;" parent="1" vertex="1">
          <mxGeometry x="120" y="355" width="100" height="20" as="geometry"/>
        </mxCell>
        <mxCell id="t0DPVlEd7K-99LzI1tXL-5" value="&lt;span&gt;house/apt No.&lt;/span&gt;" style="whiteSpace=wrap;html=1;rounded=1;shadow=1;comic=0;labelBackgroundColor=none;strokeColor=#000000;strokeWidth=2;fillColor=#FFFFFF;fontFamily=Verdana;fontSize=12;fontColor=#000000;align=center;arcSize=50;dashed=1;dashPattern=1 1;" parent="1" vertex="1">
          <mxGeometry x="60" y="517.5" width="100" height="20" as="geometry"/>
        </mxCell>
        <mxCell id="t0DPVlEd7K-99LzI1tXL-6" value="town" style="whiteSpace=wrap;html=1;rounded=1;shadow=1;comic=0;labelBackgroundColor=none;strokeColor=#000000;strokeWidth=2;fillColor=#FFFFFF;fontFamily=Verdana;fontSize=12;fontColor=#000000;align=center;arcSize=50;dashed=1;dashPattern=1 1;" parent="1" vertex="1">
          <mxGeometry x="10" y="425" width="100" height="20" as="geometry"/>
        </mxCell>
        <mxCell id="t0DPVlEd7K-99LzI1tXL-7" value="&lt;span&gt;street&lt;/span&gt;" style="whiteSpace=wrap;html=1;rounded=1;shadow=1;comic=0;labelBackgroundColor=none;strokeColor=#000000;strokeWidth=2;fillColor=#FFFFFF;fontFamily=Verdana;fontSize=12;fontColor=#000000;align=center;arcSize=50;dashed=1;dashPattern=1 1;" parent="1" vertex="1">
          <mxGeometry x="30" y="467.5" width="100" height="20" as="geometry"/>
        </mxCell>
        <mxCell id="t0DPVlEd7K-99LzI1tXL-12" value="&lt;span&gt;city&lt;/span&gt;" style="whiteSpace=wrap;html=1;rounded=1;shadow=1;comic=0;labelBackgroundColor=none;strokeColor=#000000;strokeWidth=2;fillColor=#FFFFFF;fontFamily=Verdana;fontSize=12;fontColor=#000000;align=center;arcSize=50;dashed=1;dashPattern=1 1;" parent="1" vertex="1">
          <mxGeometry x="30" y="387.5" width="100" height="20" as="geometry"/>
        </mxCell>
        <mxCell id="t0DPVlEd7K-99LzI1tXL-24" value="&lt;span&gt;Credit card expiry no&lt;/span&gt;" style="whiteSpace=wrap;html=1;rounded=1;shadow=1;comic=0;labelBackgroundColor=none;strokeColor=#000000;strokeWidth=2;fillColor=#FFFFFF;fontFamily=Verdana;fontSize=12;fontColor=#000000;align=center;arcSize=50;" parent="1" vertex="1">
          <mxGeometry x="120" y="695" width="100" height="30" as="geometry"/>
        </mxCell>
        <mxCell id="t0DPVlEd7K-99LzI1tXL-25" value="security code" style="whiteSpace=wrap;html=1;rounded=1;shadow=1;comic=0;labelBackgroundColor=none;strokeColor=#000000;strokeWidth=2;fillColor=#FFFFFF;fontFamily=Verdana;fontSize=12;fontColor=#000000;align=center;arcSize=50;" parent="1" vertex="1">
          <mxGeometry x="210" y="735" width="100" height="20" as="geometry"/>
        </mxCell>
        <mxCell id="t0DPVlEd7K-99LzI1tXL-26" value="&lt;span&gt;credit card type&lt;/span&gt;" style="whiteSpace=wrap;html=1;rounded=1;shadow=1;comic=0;labelBackgroundColor=none;strokeColor=#000000;strokeWidth=2;fillColor=#FFFFFF;fontFamily=Verdana;fontSize=12;fontColor=#000000;align=center;arcSize=50;" parent="1" vertex="1">
          <mxGeometry x="330" y="733.5" width="100" height="20" as="geometry"/>
        </mxCell>
        <mxCell id="t0DPVlEd7K-99LzI1tXL-27" value="&lt;span&gt;credit card no&lt;/span&gt;" style="whiteSpace=wrap;html=1;rounded=1;shadow=1;comic=0;labelBackgroundColor=none;strokeColor=#000000;strokeWidth=2;fillColor=#FFFFFF;fontFamily=Verdana;fontSize=12;fontColor=#000000;align=center;arcSize=50;" parent="1" vertex="1">
          <mxGeometry x="60" y="648" width="100" height="20" as="geometry"/>
        </mxCell>
        <mxCell id="t0DPVlEd7K-99LzI1tXL-32" value="&lt;span&gt;password&lt;/span&gt;" style="whiteSpace=wrap;html=1;rounded=1;shadow=1;comic=0;labelBackgroundColor=none;strokeColor=#000000;strokeWidth=2;fillColor=#FFFFFF;fontFamily=Verdana;fontSize=12;fontColor=#000000;align=center;arcSize=50;" parent="1" vertex="1">
          <mxGeometry x="429" y="578" width="100" height="20" as="geometry"/>
        </mxCell>
        <mxCell id="t0DPVlEd7K-99LzI1tXL-33" value="&lt;span&gt;user_id&lt;/span&gt;" style="whiteSpace=wrap;html=1;rounded=1;shadow=1;comic=0;labelBackgroundColor=none;strokeColor=#6c8ebf;strokeWidth=2;fillColor=#dae8fc;fontFamily=Verdana;fontSize=12;align=center;arcSize=50;" parent="1" vertex="1">
          <mxGeometry x="543" y="575" width="100" height="20" as="geometry"/>
        </mxCell>
        <mxCell id="xfP3-g7Ia95GO5ueu19k-82" style="edgeStyle=none;rounded=0;orthogonalLoop=1;jettySize=auto;html=1;entryX=0.5;entryY=1;entryDx=0;entryDy=0;startArrow=none;startFill=0;endArrow=none;endFill=0;exitX=0.119;exitY=0.013;exitDx=0;exitDy=0;exitPerimeter=0;" parent="1" target="udSbVJcAe-gZIi7dI9ab-3" edge="1" source="xfP3-g7Ia95GO5ueu19k-167">
          <mxGeometry relative="1" as="geometry">
            <mxPoint x="980.5" y="725.5" as="sourcePoint"/>
          </mxGeometry>
        </mxCell>
        <mxCell id="xfP3-g7Ia95GO5ueu19k-83" style="edgeStyle=none;rounded=0;orthogonalLoop=1;jettySize=auto;html=1;exitX=0.5;exitY=0;exitDx=0;exitDy=0;entryX=0.5;entryY=1;entryDx=0;entryDy=0;startArrow=none;startFill=0;endArrow=none;endFill=0;exitPerimeter=0;" parent="1" source="xfP3-g7Ia95GO5ueu19k-167" target="udSbVJcAe-gZIi7dI9ab-2" edge="1">
          <mxGeometry relative="1" as="geometry">
            <mxPoint x="1041.5" y="714" as="sourcePoint"/>
          </mxGeometry>
        </mxCell>
        <mxCell id="Zrgbr4FFBKcwLw_hIRoL-24" value="" style="edgeStyle=none;rounded=0;orthogonalLoop=1;jettySize=auto;html=1;startArrow=none;startFill=0;endArrow=none;endFill=0;exitX=0.895;exitY=-0.003;exitDx=0;exitDy=0;exitPerimeter=0;" edge="1" parent="1" source="xfP3-g7Ia95GO5ueu19k-167" target="Zrgbr4FFBKcwLw_hIRoL-23">
          <mxGeometry relative="1" as="geometry"/>
        </mxCell>
        <mxCell id="udSbVJcAe-gZIi7dI9ab-2" value="&lt;span&gt;order_id&lt;/span&gt;" style="whiteSpace=wrap;html=1;rounded=1;shadow=1;comic=0;labelBackgroundColor=none;strokeColor=#d79b00;strokeWidth=2;fillColor=#ffe6cc;fontFamily=Verdana;fontSize=12;align=center;arcSize=50;" parent="1" vertex="1">
          <mxGeometry x="1000" y="665" width="100" height="20" as="geometry"/>
        </mxCell>
        <mxCell id="Zrgbr4FFBKcwLw_hIRoL-23" value="&lt;span&gt;shipping_id&lt;/span&gt;" style="whiteSpace=wrap;html=1;rounded=1;shadow=1;comic=0;labelBackgroundColor=none;strokeColor=#6c8ebf;strokeWidth=2;fillColor=#dae8fc;fontFamily=Verdana;fontSize=12;align=center;arcSize=50;" vertex="1" parent="1">
          <mxGeometry x="1058.5" y="693" width="83" height="23" as="geometry"/>
        </mxCell>
        <mxCell id="udSbVJcAe-gZIi7dI9ab-3" value="&lt;span&gt;product_id&lt;/span&gt;" style="whiteSpace=wrap;html=1;rounded=1;shadow=1;comic=0;labelBackgroundColor=none;strokeColor=#d79b00;strokeWidth=2;fillColor=#ffe6cc;fontFamily=Verdana;fontSize=12;align=center;arcSize=50;" parent="1" vertex="1">
          <mxGeometry x="935.5" y="690" width="85" height="22" as="geometry"/>
        </mxCell>
        <mxCell id="xfP3-g7Ia95GO5ueu19k-81" style="edgeStyle=none;rounded=0;orthogonalLoop=1;jettySize=auto;html=1;exitX=1;exitY=0.5;exitDx=0;exitDy=0;entryX=0;entryY=0.5;entryDx=0;entryDy=0;startArrow=none;startFill=0;endArrow=ERone;endFill=0;entryPerimeter=0;" parent="1" source="udSbVJcAe-gZIi7dI9ab-10" target="xfP3-g7Ia95GO5ueu19k-167" edge="1">
          <mxGeometry relative="1" as="geometry">
            <mxPoint x="981.5000000000005" y="754" as="targetPoint"/>
          </mxGeometry>
        </mxCell>
        <mxCell id="Zrgbr4FFBKcwLw_hIRoL-20" style="edgeStyle=none;rounded=0;orthogonalLoop=1;jettySize=auto;html=1;exitX=0.5;exitY=1;exitDx=0;exitDy=0;entryX=0.063;entryY=0.042;entryDx=0;entryDy=0;entryPerimeter=0;startArrow=none;startFill=0;endArrow=none;endFill=0;" edge="1" parent="1" source="udSbVJcAe-gZIi7dI9ab-10" target="xfP3-g7Ia95GO5ueu19k-1">
          <mxGeometry relative="1" as="geometry"/>
        </mxCell>
        <mxCell id="udSbVJcAe-gZIi7dI9ab-10" value="SHIPPED BY" style="rhombus;whiteSpace=wrap;html=1;dashed=1;" parent="1" vertex="1">
          <mxGeometry x="855.5" y="746.5" width="80" height="80" as="geometry"/>
        </mxCell>
        <mxCell id="xfP3-g7Ia95GO5ueu19k-43" style="edgeStyle=none;rounded=0;orthogonalLoop=1;jettySize=auto;html=1;exitX=0.017;exitY=1.017;exitDx=0;exitDy=0;entryX=1;entryY=0;entryDx=0;entryDy=0;startArrow=ERone;startFill=0;endArrow=classic;endFill=1;exitPerimeter=0;" parent="1" source="xfP3-g7Ia95GO5ueu19k-61" target="xfP3-g7Ia95GO5ueu19k-42" edge="1">
          <mxGeometry relative="1" as="geometry">
            <mxPoint x="1498.573593128831" y="593.2842712474455" as="sourcePoint"/>
          </mxGeometry>
        </mxCell>
        <mxCell id="udSbVJcAe-gZIi7dI9ab-12" value="&lt;span&gt;gender&lt;/span&gt;" style="whiteSpace=wrap;html=1;rounded=1;shadow=1;comic=0;labelBackgroundColor=none;strokeColor=#000000;strokeWidth=2;fillColor=#FFFFFF;fontFamily=Verdana;fontSize=12;fontColor=#000000;align=center;arcSize=50;" parent="1" vertex="1">
          <mxGeometry x="1304.5" y="464" width="100" height="20" as="geometry"/>
        </mxCell>
        <mxCell id="udSbVJcAe-gZIi7dI9ab-13" value="&lt;span&gt;dob&lt;/span&gt;" style="whiteSpace=wrap;html=1;rounded=1;shadow=1;comic=0;labelBackgroundColor=none;strokeColor=#000000;strokeWidth=2;fillColor=#FFFFFF;fontFamily=Verdana;fontSize=12;fontColor=#000000;align=center;arcSize=50;" parent="1" vertex="1">
          <mxGeometry x="1382" y="519" width="100" height="20" as="geometry"/>
        </mxCell>
        <mxCell id="udSbVJcAe-gZIi7dI9ab-14" value="&lt;span&gt;age&lt;/span&gt;" style="whiteSpace=wrap;html=1;rounded=1;shadow=1;comic=0;labelBackgroundColor=none;strokeColor=#000000;strokeWidth=2;fillColor=#FFFFFF;fontFamily=Verdana;fontSize=12;fontColor=#000000;align=center;arcSize=50;dashed=1;dashPattern=1 1;" parent="1" vertex="1">
          <mxGeometry x="1382" y="427.5" width="100" height="20" as="geometry"/>
        </mxCell>
        <mxCell id="xfP3-g7Ia95GO5ueu19k-116" style="edgeStyle=none;rounded=0;orthogonalLoop=1;jettySize=auto;html=1;exitX=0.5;exitY=1;exitDx=0;exitDy=0;startArrow=none;startFill=0;endArrow=none;endFill=0;" parent="1" source="udSbVJcAe-gZIi7dI9ab-15" target="xfP3-g7Ia95GO5ueu19k-61" edge="1">
          <mxGeometry relative="1" as="geometry"/>
        </mxCell>
        <mxCell id="udSbVJcAe-gZIi7dI9ab-15" value="&lt;span&gt;f_name&lt;/span&gt;" style="whiteSpace=wrap;html=1;rounded=1;shadow=1;comic=0;labelBackgroundColor=none;strokeColor=#000000;strokeWidth=2;fillColor=#FFFFFF;fontFamily=Verdana;fontSize=12;fontColor=#000000;align=center;arcSize=50;" parent="1" vertex="1">
          <mxGeometry x="1445.5" y="465" width="100" height="20" as="geometry"/>
        </mxCell>
        <mxCell id="xfP3-g7Ia95GO5ueu19k-117" style="edgeStyle=none;rounded=0;orthogonalLoop=1;jettySize=auto;html=1;exitX=0;exitY=0.5;exitDx=0;exitDy=0;entryX=0.671;entryY=-0.008;entryDx=0;entryDy=0;entryPerimeter=0;startArrow=none;startFill=0;endArrow=none;endFill=0;" parent="1" source="udSbVJcAe-gZIi7dI9ab-16" target="xfP3-g7Ia95GO5ueu19k-61" edge="1">
          <mxGeometry relative="1" as="geometry"/>
        </mxCell>
        <mxCell id="udSbVJcAe-gZIi7dI9ab-16" value="l_name" style="whiteSpace=wrap;html=1;rounded=1;shadow=1;comic=0;labelBackgroundColor=none;strokeColor=#000000;strokeWidth=2;fillColor=#FFFFFF;fontFamily=Verdana;fontSize=12;fontColor=#000000;align=center;arcSize=50;" parent="1" vertex="1">
          <mxGeometry x="1532" y="494" width="100" height="20" as="geometry"/>
        </mxCell>
        <mxCell id="xfP3-g7Ia95GO5ueu19k-143" style="edgeStyle=none;rounded=0;orthogonalLoop=1;jettySize=auto;html=1;exitX=0.75;exitY=0;exitDx=0;exitDy=0;entryX=0;entryY=0.75;entryDx=0;entryDy=0;startArrow=none;startFill=0;endArrow=none;endFill=0;" parent="1" source="Zrgbr4FFBKcwLw_hIRoL-128" target="udSbVJcAe-gZIi7dI9ab-50" edge="1">
          <mxGeometry relative="1" as="geometry">
            <mxPoint x="1924.5" y="572.5" as="sourcePoint"/>
          </mxGeometry>
        </mxCell>
        <mxCell id="xfP3-g7Ia95GO5ueu19k-155" style="edgeStyle=none;rounded=0;orthogonalLoop=1;jettySize=auto;html=1;exitX=1;exitY=0;exitDx=0;exitDy=0;entryX=0;entryY=0.75;entryDx=0;entryDy=0;startArrow=none;startFill=0;endArrow=none;endFill=0;" parent="1" source="udSbVJcAe-gZIi7dI9ab-31" target="xfP3-g7Ia95GO5ueu19k-100" edge="1">
          <mxGeometry relative="1" as="geometry"/>
        </mxCell>
        <mxCell id="udSbVJcAe-gZIi7dI9ab-31" value="eircode" style="ellipse;shape=doubleEllipse;whiteSpace=wrap;html=1;" parent="1" vertex="1">
          <mxGeometry x="1889" y="434" width="100" height="60" as="geometry"/>
        </mxCell>
        <mxCell id="xfP3-g7Ia95GO5ueu19k-118" style="edgeStyle=none;rounded=0;orthogonalLoop=1;jettySize=auto;html=1;exitX=0.75;exitY=0;exitDx=0;exitDy=0;startArrow=none;startFill=0;endArrow=none;endFill=0;entryX=0.5;entryY=1;entryDx=0;entryDy=0;" parent="1" source="udSbVJcAe-gZIi7dI9ab-41" target="Zrgbr4FFBKcwLw_hIRoL-127" edge="1">
          <mxGeometry relative="1" as="geometry">
            <mxPoint x="1617.5" y="848" as="targetPoint"/>
          </mxGeometry>
        </mxCell>
        <mxCell id="udSbVJcAe-gZIi7dI9ab-41" value="&lt;span&gt;acc_id&lt;/span&gt;" style="whiteSpace=wrap;html=1;rounded=1;shadow=1;comic=0;labelBackgroundColor=none;strokeColor=#000000;strokeWidth=2;fillColor=#FFFFFF;fontFamily=Verdana;fontSize=12;fontColor=#000000;align=center;arcSize=50;" parent="1" vertex="1">
          <mxGeometry x="1529" y="889" width="100" height="20" as="geometry"/>
        </mxCell>
        <mxCell id="xfP3-g7Ia95GO5ueu19k-119" style="edgeStyle=none;rounded=0;orthogonalLoop=1;jettySize=auto;html=1;exitX=0.25;exitY=0;exitDx=0;exitDy=0;entryX=0.75;entryY=1;entryDx=0;entryDy=0;startArrow=none;startFill=0;endArrow=none;endFill=0;" parent="1" source="udSbVJcAe-gZIi7dI9ab-42" target="Zrgbr4FFBKcwLw_hIRoL-127" edge="1">
          <mxGeometry relative="1" as="geometry">
            <mxPoint x="1666.44" y="847.5799999999999" as="targetPoint"/>
          </mxGeometry>
        </mxCell>
        <mxCell id="udSbVJcAe-gZIi7dI9ab-42" value="&lt;span&gt;acc swift&lt;/span&gt;" style="whiteSpace=wrap;html=1;rounded=1;shadow=1;comic=0;labelBackgroundColor=none;strokeColor=#000000;strokeWidth=2;fillColor=#FFFFFF;fontFamily=Verdana;fontSize=12;fontColor=#000000;align=center;arcSize=50;" parent="1" vertex="1">
          <mxGeometry x="1646" y="889" width="100" height="20" as="geometry"/>
        </mxCell>
        <mxCell id="xfP3-g7Ia95GO5ueu19k-122" style="edgeStyle=none;rounded=0;orthogonalLoop=1;jettySize=auto;html=1;exitX=0;exitY=0.25;exitDx=0;exitDy=0;startArrow=none;startFill=0;endArrow=none;endFill=0;entryX=1;entryY=0.75;entryDx=0;entryDy=0;" parent="1" source="udSbVJcAe-gZIi7dI9ab-43" target="Zrgbr4FFBKcwLw_hIRoL-127" edge="1">
          <mxGeometry relative="1" as="geometry">
            <mxPoint x="1674.5" y="848" as="targetPoint"/>
          </mxGeometry>
        </mxCell>
        <mxCell id="udSbVJcAe-gZIi7dI9ab-43" value="&lt;span&gt;iban&lt;/span&gt;" style="whiteSpace=wrap;html=1;rounded=1;shadow=1;comic=0;labelBackgroundColor=none;strokeColor=#000000;strokeWidth=2;fillColor=#FFFFFF;fontFamily=Verdana;fontSize=12;fontColor=#000000;align=center;arcSize=50;" parent="1" vertex="1">
          <mxGeometry x="1716" y="860" width="100" height="20" as="geometry"/>
        </mxCell>
        <mxCell id="xfP3-g7Ia95GO5ueu19k-121" style="edgeStyle=none;rounded=0;orthogonalLoop=1;jettySize=auto;html=1;exitX=0;exitY=0.5;exitDx=0;exitDy=0;entryX=1;entryY=0.5;entryDx=0;entryDy=0;startArrow=none;startFill=0;endArrow=none;endFill=0;" parent="1" source="udSbVJcAe-gZIi7dI9ab-44" target="Zrgbr4FFBKcwLw_hIRoL-127" edge="1">
          <mxGeometry relative="1" as="geometry">
            <mxPoint x="1710" y="795.5" as="targetPoint"/>
          </mxGeometry>
        </mxCell>
        <mxCell id="udSbVJcAe-gZIi7dI9ab-44" value="&lt;span&gt;acc sort&lt;/span&gt;" style="whiteSpace=wrap;html=1;rounded=1;shadow=1;comic=0;labelBackgroundColor=none;strokeColor=#000000;strokeWidth=2;fillColor=#FFFFFF;fontFamily=Verdana;fontSize=12;fontColor=#000000;align=center;arcSize=50;" parent="1" vertex="1">
          <mxGeometry x="1736" y="799" width="100" height="20" as="geometry"/>
        </mxCell>
        <mxCell id="udSbVJcAe-gZIi7dI9ab-50" value="&lt;span&gt;email&lt;/span&gt;" style="whiteSpace=wrap;html=1;rounded=1;shadow=1;comic=0;labelBackgroundColor=none;strokeColor=#000000;strokeWidth=2;fillColor=#FFFFFF;fontFamily=Verdana;fontSize=12;fontColor=#000000;align=center;arcSize=50;" parent="1" vertex="1">
          <mxGeometry x="1926" y="529" width="100" height="20" as="geometry"/>
        </mxCell>
        <mxCell id="udSbVJcAe-gZIi7dI9ab-51" value="&lt;span&gt;phone&lt;/span&gt;" style="whiteSpace=wrap;html=1;rounded=1;shadow=1;comic=0;labelBackgroundColor=none;strokeColor=#000000;strokeWidth=2;fillColor=#FFFFFF;fontFamily=Verdana;fontSize=12;fontColor=#000000;align=center;arcSize=50;" parent="1" vertex="1">
          <mxGeometry x="1923" y="645" width="100" height="20" as="geometry"/>
        </mxCell>
        <mxCell id="xfP3-g7Ia95GO5ueu19k-145" style="edgeStyle=none;rounded=0;orthogonalLoop=1;jettySize=auto;html=1;exitX=0.75;exitY=0;exitDx=0;exitDy=0;entryX=0;entryY=0.75;entryDx=0;entryDy=0;startArrow=none;startFill=0;endArrow=none;endFill=0;" parent="1" source="udSbVJcAe-gZIi7dI9ab-52" target="udSbVJcAe-gZIi7dI9ab-55" edge="1">
          <mxGeometry relative="1" as="geometry"/>
        </mxCell>
        <mxCell id="Zrgbr4FFBKcwLw_hIRoL-94" style="edgeStyle=none;rounded=0;orthogonalLoop=1;jettySize=auto;html=1;exitX=1;exitY=0.5;exitDx=0;exitDy=0;entryX=0;entryY=0.5;entryDx=0;entryDy=0;startArrow=none;startFill=0;endArrow=none;endFill=0;" edge="1" parent="1" source="udSbVJcAe-gZIi7dI9ab-52" target="Zrgbr4FFBKcwLw_hIRoL-93">
          <mxGeometry relative="1" as="geometry"/>
        </mxCell>
        <mxCell id="Zrgbr4FFBKcwLw_hIRoL-130" style="edgeStyle=none;rounded=0;orthogonalLoop=1;jettySize=auto;html=1;exitX=0;exitY=0.5;exitDx=0;exitDy=0;entryX=1;entryY=0.5;entryDx=0;entryDy=0;startArrow=none;startFill=0;endArrow=none;endFill=0;" edge="1" parent="1" source="udSbVJcAe-gZIi7dI9ab-52" target="Zrgbr4FFBKcwLw_hIRoL-128">
          <mxGeometry relative="1" as="geometry"/>
        </mxCell>
        <mxCell id="Zrgbr4FFBKcwLw_hIRoL-150" style="edgeStyle=none;rounded=0;orthogonalLoop=1;jettySize=auto;html=1;exitX=0.5;exitY=1;exitDx=0;exitDy=0;entryX=0.5;entryY=0;entryDx=0;entryDy=0;startArrow=none;startFill=0;endArrow=none;endFill=0;" edge="1" parent="1" source="udSbVJcAe-gZIi7dI9ab-52" target="udSbVJcAe-gZIi7dI9ab-56">
          <mxGeometry relative="1" as="geometry"/>
        </mxCell>
        <mxCell id="udSbVJcAe-gZIi7dI9ab-52" value="&lt;span&gt;next of kin&lt;br&gt;details&lt;br&gt;&lt;/span&gt;" style="whiteSpace=wrap;html=1;rounded=1;shadow=1;comic=0;labelBackgroundColor=none;strokeColor=#000000;strokeWidth=2;fillColor=#FFFFFF;fontFamily=Verdana;fontSize=12;fontColor=#000000;align=center;arcSize=50;" parent="1" vertex="1">
          <mxGeometry x="2046" y="598.5" width="100" height="35" as="geometry"/>
        </mxCell>
        <mxCell id="udSbVJcAe-gZIi7dI9ab-55" value="&lt;span&gt;phone&lt;/span&gt;" style="whiteSpace=wrap;html=1;rounded=1;shadow=1;comic=0;labelBackgroundColor=none;strokeColor=#000000;strokeWidth=2;fillColor=#FFFFFF;fontFamily=Verdana;fontSize=12;fontColor=#000000;align=center;arcSize=50;" parent="1" vertex="1">
          <mxGeometry x="2160" y="529" width="100" height="20" as="geometry"/>
        </mxCell>
        <mxCell id="udSbVJcAe-gZIi7dI9ab-56" value="&lt;span&gt;relationship&lt;/span&gt;" style="whiteSpace=wrap;html=1;rounded=1;shadow=1;comic=0;labelBackgroundColor=none;strokeColor=#000000;strokeWidth=2;fillColor=#FFFFFF;fontFamily=Verdana;fontSize=12;fontColor=#000000;align=center;arcSize=50;" parent="1" vertex="1">
          <mxGeometry x="2100" y="680" width="100" height="20" as="geometry"/>
        </mxCell>
        <mxCell id="xfP3-g7Ia95GO5ueu19k-128" style="edgeStyle=none;rounded=0;orthogonalLoop=1;jettySize=auto;html=1;exitX=1;exitY=0.5;exitDx=0;exitDy=0;entryX=0;entryY=0.5;entryDx=0;entryDy=0;entryPerimeter=0;startArrow=classic;startFill=1;endArrow=ERone;endFill=0;" parent="1" source="udSbVJcAe-gZIi7dI9ab-57" target="xfP3-g7Ia95GO5ueu19k-125" edge="1">
          <mxGeometry relative="1" as="geometry"/>
        </mxCell>
        <mxCell id="udSbVJcAe-gZIi7dI9ab-57" value="PAID TO" style="rhombus;whiteSpace=wrap;html=1;dashed=1;" parent="1" vertex="1">
          <mxGeometry x="1646" y="640" width="80" height="80" as="geometry"/>
        </mxCell>
        <mxCell id="xfP3-g7Ia95GO5ueu19k-133" style="edgeStyle=none;rounded=0;orthogonalLoop=1;jettySize=auto;html=1;exitX=0.5;exitY=0;exitDx=0;exitDy=0;entryX=0;entryY=0;entryDx=85.5;entryDy=70;entryPerimeter=0;startArrow=none;startFill=0;endArrow=none;endFill=0;" parent="1" source="udSbVJcAe-gZIi7dI9ab-60" target="xfP3-g7Ia95GO5ueu19k-125" edge="1">
          <mxGeometry relative="1" as="geometry"/>
        </mxCell>
        <mxCell id="udSbVJcAe-gZIi7dI9ab-60" value="&lt;span&gt;date paid&lt;/span&gt;" style="whiteSpace=wrap;html=1;rounded=1;shadow=1;comic=0;labelBackgroundColor=none;strokeColor=#000000;strokeWidth=2;fillColor=#FFFFFF;fontFamily=Verdana;fontSize=12;fontColor=#000000;align=center;arcSize=50;" parent="1" vertex="1">
          <mxGeometry x="1946" y="854" width="100" height="20" as="geometry"/>
        </mxCell>
        <mxCell id="xfP3-g7Ia95GO5ueu19k-132" style="edgeStyle=none;rounded=0;orthogonalLoop=1;jettySize=auto;html=1;exitX=0.5;exitY=0;exitDx=0;exitDy=0;entryX=0;entryY=0;entryDx=28.5;entryDy=70;entryPerimeter=0;startArrow=none;startFill=0;endArrow=none;endFill=0;" parent="1" source="udSbVJcAe-gZIi7dI9ab-61" target="xfP3-g7Ia95GO5ueu19k-125" edge="1">
          <mxGeometry relative="1" as="geometry"/>
        </mxCell>
        <mxCell id="udSbVJcAe-gZIi7dI9ab-61" value="&lt;span&gt;wages_id&lt;/span&gt;" style="whiteSpace=wrap;html=1;rounded=1;shadow=1;comic=0;labelBackgroundColor=none;strokeColor=#6c8ebf;strokeWidth=2;fillColor=#dae8fc;fontFamily=Verdana;fontSize=12;align=center;arcSize=50;" parent="1" vertex="1">
          <mxGeometry x="1836" y="844" width="100" height="20" as="geometry"/>
        </mxCell>
        <mxCell id="xfP3-g7Ia95GO5ueu19k-134" style="edgeStyle=none;rounded=0;orthogonalLoop=1;jettySize=auto;html=1;exitX=0;exitY=0.25;exitDx=0;exitDy=0;entryX=1;entryY=0.364;entryDx=0;entryDy=0;entryPerimeter=0;startArrow=none;startFill=0;endArrow=none;endFill=0;" parent="1" source="udSbVJcAe-gZIi7dI9ab-62" target="xfP3-g7Ia95GO5ueu19k-125" edge="1">
          <mxGeometry relative="1" as="geometry"/>
        </mxCell>
        <mxCell id="udSbVJcAe-gZIi7dI9ab-62" value="&lt;span&gt;employee_id&lt;/span&gt;" style="whiteSpace=wrap;html=1;rounded=1;shadow=1;comic=0;labelBackgroundColor=none;strokeColor=#d79b00;strokeWidth=2;fillColor=#ffe6cc;fontFamily=Verdana;fontSize=12;align=center;arcSize=50;" parent="1" vertex="1">
          <mxGeometry x="2061" y="732.5" width="100" height="20" as="geometry"/>
        </mxCell>
        <mxCell id="xfP3-g7Ia95GO5ueu19k-138" style="edgeStyle=none;rounded=0;orthogonalLoop=1;jettySize=auto;html=1;exitX=0;exitY=0.5;exitDx=0;exitDy=0;entryX=0;entryY=0;entryDx=114;entryDy=52.5;entryPerimeter=0;startArrow=none;startFill=0;endArrow=none;endFill=0;" parent="1" source="udSbVJcAe-gZIi7dI9ab-63" target="xfP3-g7Ia95GO5ueu19k-125" edge="1">
          <mxGeometry relative="1" as="geometry"/>
        </mxCell>
        <mxCell id="udSbVJcAe-gZIi7dI9ab-63" value="&lt;span&gt;Employee monthly wage&lt;/span&gt;" style="whiteSpace=wrap;html=1;rounded=1;shadow=1;comic=0;labelBackgroundColor=none;strokeColor=#000000;strokeWidth=2;fillColor=#FFFFFF;fontFamily=Verdana;fontSize=12;fontColor=#000000;align=center;arcSize=50;" parent="1" vertex="1">
          <mxGeometry x="2070" y="791" width="100" height="36" as="geometry"/>
        </mxCell>
        <mxCell id="SIIoMTfQmOXYOQuS74W--23" style="edgeStyle=none;rounded=0;orthogonalLoop=1;jettySize=auto;html=1;exitX=1;exitY=0.5;exitDx=0;exitDy=0;endArrow=ERoneToMany;endFill=0;entryX=0;entryY=0;entryDx=0;entryDy=52.5;entryPerimeter=0;" parent="1" source="SIIoMTfQmOXYOQuS74W--21" target="xfP3-g7Ia95GO5ueu19k-62" edge="1">
          <mxGeometry relative="1" as="geometry">
            <mxPoint x="982" y="460" as="targetPoint"/>
          </mxGeometry>
        </mxCell>
        <mxCell id="SIIoMTfQmOXYOQuS74W--21" value="Makes" style="rhombus;whiteSpace=wrap;html=1;dashed=1;" parent="1" vertex="1">
          <mxGeometry x="700" y="437.5" width="80" height="80" as="geometry"/>
        </mxCell>
        <mxCell id="SIIoMTfQmOXYOQuS74W--28" style="edgeStyle=none;rounded=0;orthogonalLoop=1;jettySize=auto;html=1;exitX=0.5;exitY=1;exitDx=0;exitDy=0;entryX=0.5;entryY=0;entryDx=0;entryDy=0;endArrow=ERmany;endFill=0;" parent="1" source="SIIoMTfQmOXYOQuS74W--24" target="SIIoMTfQmOXYOQuS74W--26" edge="1">
          <mxGeometry relative="1" as="geometry"/>
        </mxCell>
        <mxCell id="SIIoMTfQmOXYOQuS74W--24" value="FILLS" style="rhombus;whiteSpace=wrap;html=1;" parent="1" vertex="1">
          <mxGeometry x="658" y="570.5" width="80" height="80" as="geometry"/>
        </mxCell>
        <mxCell id="SIIoMTfQmOXYOQuS74W--37" style="edgeStyle=none;rounded=0;orthogonalLoop=1;jettySize=auto;html=1;exitX=0;exitY=0.5;exitDx=0;exitDy=0;entryX=1;entryY=0.5;entryDx=0;entryDy=0;endArrow=none;endFill=0;" parent="1" source="SIIoMTfQmOXYOQuS74W--26" target="SIIoMTfQmOXYOQuS74W--34" edge="1">
          <mxGeometry relative="1" as="geometry"/>
        </mxCell>
        <mxCell id="xfP3-g7Ia95GO5ueu19k-3" style="rounded=0;orthogonalLoop=1;jettySize=auto;html=1;exitX=1;exitY=0.5;exitDx=0;exitDy=0;entryX=0;entryY=0;entryDx=0;entryDy=0;startArrow=ERone;startFill=0;endArrow=classic;endFill=1;" parent="1" source="SIIoMTfQmOXYOQuS74W--26" target="xfP3-g7Ia95GO5ueu19k-2" edge="1">
          <mxGeometry relative="1" as="geometry"/>
        </mxCell>
        <mxCell id="xfP3-g7Ia95GO5ueu19k-60" style="edgeStyle=none;rounded=0;orthogonalLoop=1;jettySize=auto;html=1;exitX=1;exitY=0.25;exitDx=0;exitDy=0;entryX=0;entryY=1;entryDx=0;entryDy=0;startArrow=ERone;startFill=0;endArrow=none;endFill=0;" parent="1" source="SIIoMTfQmOXYOQuS74W--26" target="xfP3-g7Ia95GO5ueu19k-5" edge="1">
          <mxGeometry relative="1" as="geometry"/>
        </mxCell>
        <mxCell id="SIIoMTfQmOXYOQuS74W--26" value="CART" style="rounded=0;whiteSpace=wrap;html=1;" parent="1" vertex="1">
          <mxGeometry x="630" y="717.5" width="120" height="60" as="geometry"/>
        </mxCell>
        <mxCell id="SIIoMTfQmOXYOQuS74W--41" style="edgeStyle=none;rounded=0;orthogonalLoop=1;jettySize=auto;html=1;exitX=0.5;exitY=0;exitDx=0;exitDy=0;entryX=0.5;entryY=1;entryDx=0;entryDy=0;endArrow=none;endFill=0;" parent="1" source="SIIoMTfQmOXYOQuS74W--29" target="SIIoMTfQmOXYOQuS74W--26" edge="1">
          <mxGeometry relative="1" as="geometry"/>
        </mxCell>
        <mxCell id="SIIoMTfQmOXYOQuS74W--29" value="&lt;span&gt;subtotal&lt;/span&gt;" style="whiteSpace=wrap;html=1;rounded=1;shadow=1;comic=0;labelBackgroundColor=none;strokeColor=#000000;strokeWidth=2;fillColor=#FFFFFF;fontFamily=Verdana;fontSize=12;fontColor=#000000;align=center;arcSize=50;" parent="1" vertex="1">
          <mxGeometry x="620" y="865.5" width="100" height="20" as="geometry"/>
        </mxCell>
        <mxCell id="SIIoMTfQmOXYOQuS74W--40" style="edgeStyle=none;rounded=0;orthogonalLoop=1;jettySize=auto;html=1;exitX=0.5;exitY=0;exitDx=0;exitDy=0;entryX=0.299;entryY=1.012;entryDx=0;entryDy=0;entryPerimeter=0;endArrow=none;endFill=0;" parent="1" source="SIIoMTfQmOXYOQuS74W--30" target="SIIoMTfQmOXYOQuS74W--26" edge="1">
          <mxGeometry relative="1" as="geometry"/>
        </mxCell>
        <mxCell id="SIIoMTfQmOXYOQuS74W--30" value="&lt;span&gt;cart creation&lt;br&gt;date&lt;br&gt;&lt;/span&gt;" style="whiteSpace=wrap;html=1;rounded=1;shadow=1;comic=0;labelBackgroundColor=none;strokeColor=#000000;strokeWidth=2;fillColor=#FFFFFF;fontFamily=Verdana;fontSize=12;fontColor=#000000;align=center;arcSize=50;" parent="1" vertex="1">
          <mxGeometry x="530" y="898" width="100" height="33" as="geometry"/>
        </mxCell>
        <mxCell id="SIIoMTfQmOXYOQuS74W--42" style="edgeStyle=none;rounded=0;orthogonalLoop=1;jettySize=auto;html=1;exitX=1;exitY=0.25;exitDx=0;exitDy=0;entryX=0.109;entryY=1.012;entryDx=0;entryDy=0;entryPerimeter=0;endArrow=none;endFill=0;" parent="1" source="SIIoMTfQmOXYOQuS74W--32" target="SIIoMTfQmOXYOQuS74W--26" edge="1">
          <mxGeometry relative="1" as="geometry"/>
        </mxCell>
        <mxCell id="SIIoMTfQmOXYOQuS74W--32" value="&amp;nbsp;cart_id" style="whiteSpace=wrap;html=1;rounded=1;shadow=1;comic=0;labelBackgroundColor=none;strokeColor=#6c8ebf;strokeWidth=2;fillColor=#dae8fc;fontFamily=Verdana;fontSize=12;align=center;arcSize=50;" parent="1" vertex="1">
          <mxGeometry x="450" y="854" width="70" height="20" as="geometry"/>
        </mxCell>
        <mxCell id="SIIoMTfQmOXYOQuS74W--38" style="edgeStyle=none;rounded=0;orthogonalLoop=1;jettySize=auto;html=1;exitX=1;exitY=0.5;exitDx=0;exitDy=0;entryX=0;entryY=0.75;entryDx=0;entryDy=0;endArrow=none;endFill=0;" parent="1" source="SIIoMTfQmOXYOQuS74W--33" target="SIIoMTfQmOXYOQuS74W--26" edge="1">
          <mxGeometry relative="1" as="geometry"/>
        </mxCell>
        <mxCell id="SIIoMTfQmOXYOQuS74W--33" value="&lt;span&gt;product_id&lt;/span&gt;" style="whiteSpace=wrap;html=1;rounded=1;shadow=1;comic=0;labelBackgroundColor=none;strokeColor=#d79b00;strokeWidth=2;fillColor=#ffe6cc;fontFamily=Verdana;fontSize=12;align=center;arcSize=50;" parent="1" vertex="1">
          <mxGeometry x="410" y="797.5" width="100" height="20" as="geometry"/>
        </mxCell>
        <mxCell id="SIIoMTfQmOXYOQuS74W--34" value="&lt;span&gt;item qty&lt;/span&gt;" style="whiteSpace=wrap;html=1;rounded=1;shadow=1;comic=0;labelBackgroundColor=none;strokeColor=#000000;strokeWidth=2;fillColor=#FFFFFF;fontFamily=Verdana;fontSize=12;fontColor=#000000;align=center;arcSize=50;" parent="1" vertex="1">
          <mxGeometry x="420" y="762.5" width="100" height="20" as="geometry"/>
        </mxCell>
        <mxCell id="xfP3-g7Ia95GO5ueu19k-36" style="edgeStyle=none;rounded=0;orthogonalLoop=1;jettySize=auto;html=1;exitX=1;exitY=0.25;exitDx=0;exitDy=0;entryX=0;entryY=0.75;entryDx=0;entryDy=0;startArrow=none;startFill=0;endArrow=none;endFill=0;" parent="1" source="xfP3-g7Ia95GO5ueu19k-1" target="xfP3-g7Ia95GO5ueu19k-32" edge="1">
          <mxGeometry relative="1" as="geometry"/>
        </mxCell>
        <mxCell id="xfP3-g7Ia95GO5ueu19k-37" style="edgeStyle=none;rounded=0;orthogonalLoop=1;jettySize=auto;html=1;exitX=1;exitY=0.5;exitDx=0;exitDy=0;entryX=0;entryY=0.5;entryDx=0;entryDy=0;startArrow=none;startFill=0;endArrow=none;endFill=0;" parent="1" source="xfP3-g7Ia95GO5ueu19k-1" target="xfP3-g7Ia95GO5ueu19k-31" edge="1">
          <mxGeometry relative="1" as="geometry"/>
        </mxCell>
        <mxCell id="xfP3-g7Ia95GO5ueu19k-38" style="edgeStyle=none;rounded=0;orthogonalLoop=1;jettySize=auto;html=1;exitX=0.75;exitY=1;exitDx=0;exitDy=0;startArrow=none;startFill=0;endArrow=none;endFill=0;" parent="1" source="xfP3-g7Ia95GO5ueu19k-1" target="xfP3-g7Ia95GO5ueu19k-30" edge="1">
          <mxGeometry relative="1" as="geometry"/>
        </mxCell>
        <mxCell id="xfP3-g7Ia95GO5ueu19k-41" style="edgeStyle=none;rounded=0;orthogonalLoop=1;jettySize=auto;html=1;exitX=0.75;exitY=0;exitDx=0;exitDy=0;startArrow=ERzeroToMany;startFill=1;endArrow=none;endFill=0;entryX=0;entryY=1;entryDx=0;entryDy=0;" parent="1" source="xfP3-g7Ia95GO5ueu19k-1" target="xfP3-g7Ia95GO5ueu19k-42" edge="1">
          <mxGeometry relative="1" as="geometry">
            <mxPoint x="1210.5" y="860" as="targetPoint"/>
          </mxGeometry>
        </mxCell>
        <mxCell id="xfP3-g7Ia95GO5ueu19k-44" style="edgeStyle=none;rounded=0;orthogonalLoop=1;jettySize=auto;html=1;exitX=1;exitY=0.25;exitDx=0;exitDy=0;startArrow=none;startFill=0;endArrow=classic;endFill=1;entryX=0;entryY=0.5;entryDx=0;entryDy=0;" parent="1" source="xfP3-g7Ia95GO5ueu19k-1" target="xfP3-g7Ia95GO5ueu19k-45" edge="1">
          <mxGeometry relative="1" as="geometry">
            <mxPoint x="1300.5" y="930.0000000000002" as="targetPoint"/>
          </mxGeometry>
        </mxCell>
        <mxCell id="Zrgbr4FFBKcwLw_hIRoL-135" style="edgeStyle=none;rounded=0;orthogonalLoop=1;jettySize=auto;html=1;exitX=0.5;exitY=1;exitDx=0;exitDy=0;entryX=0.5;entryY=0;entryDx=0;entryDy=0;startArrow=none;startFill=0;endArrow=none;endFill=0;" edge="1" parent="1" source="xfP3-g7Ia95GO5ueu19k-1" target="xfP3-g7Ia95GO5ueu19k-9">
          <mxGeometry relative="1" as="geometry"/>
        </mxCell>
        <mxCell id="xfP3-g7Ia95GO5ueu19k-1" value="PRODUCT" style="rounded=0;whiteSpace=wrap;html=1;" parent="1" vertex="1">
          <mxGeometry x="1022.5" y="977.5" width="120" height="60" as="geometry"/>
        </mxCell>
        <mxCell id="xfP3-g7Ia95GO5ueu19k-4" style="edgeStyle=none;rounded=0;orthogonalLoop=1;jettySize=auto;html=1;exitX=0.85;exitY=0.679;exitDx=0;exitDy=0;startArrow=none;startFill=0;endArrow=ERoneToMany;endFill=0;entryX=-0.002;entryY=0.085;entryDx=0;entryDy=0;exitPerimeter=0;entryPerimeter=0;" parent="1" source="xfP3-g7Ia95GO5ueu19k-2" target="xfP3-g7Ia95GO5ueu19k-1" edge="1">
          <mxGeometry relative="1" as="geometry">
            <mxPoint x="1070.5" y="930" as="targetPoint"/>
          </mxGeometry>
        </mxCell>
        <mxCell id="xfP3-g7Ia95GO5ueu19k-2" value="CONTAINS" style="rhombus;whiteSpace=wrap;html=1;" parent="1" vertex="1">
          <mxGeometry x="840" y="854" width="80" height="80" as="geometry"/>
        </mxCell>
        <mxCell id="xfP3-g7Ia95GO5ueu19k-69" style="edgeStyle=none;rounded=0;orthogonalLoop=1;jettySize=auto;html=1;exitX=1;exitY=0;exitDx=0;exitDy=0;entryX=0;entryY=1;entryDx=0;entryDy=0;entryPerimeter=0;startArrow=none;startFill=0;endArrow=ERzeroToOne;endFill=1;" parent="1" source="xfP3-g7Ia95GO5ueu19k-5" target="xfP3-g7Ia95GO5ueu19k-62" edge="1">
          <mxGeometry relative="1" as="geometry"/>
        </mxCell>
        <mxCell id="xfP3-g7Ia95GO5ueu19k-5" value="HAS" style="rhombus;whiteSpace=wrap;html=1;dashed=1;" parent="1" vertex="1">
          <mxGeometry x="840" y="587.5" width="80" height="80" as="geometry"/>
        </mxCell>
        <mxCell id="xfP3-g7Ia95GO5ueu19k-17" style="edgeStyle=none;rounded=0;orthogonalLoop=1;jettySize=auto;html=1;exitX=0.25;exitY=1;exitDx=0;exitDy=0;startArrow=none;startFill=0;endArrow=none;endFill=0;" parent="1" source="xfP3-g7Ia95GO5ueu19k-6" target="xfP3-g7Ia95GO5ueu19k-1" edge="1">
          <mxGeometry relative="1" as="geometry"/>
        </mxCell>
        <mxCell id="xfP3-g7Ia95GO5ueu19k-6" value="&lt;span&gt;size&lt;/span&gt;" style="whiteSpace=wrap;html=1;rounded=1;shadow=1;comic=0;labelBackgroundColor=none;strokeColor=#000000;strokeWidth=2;fillColor=#FFFFFF;fontFamily=Verdana;fontSize=12;fontColor=#000000;align=center;arcSize=50;" parent="1" vertex="1">
          <mxGeometry x="1050" y="845.5" width="68" height="20" as="geometry"/>
        </mxCell>
        <mxCell id="xfP3-g7Ia95GO5ueu19k-16" style="edgeStyle=none;rounded=0;orthogonalLoop=1;jettySize=auto;html=1;exitX=0.25;exitY=1;exitDx=0;exitDy=0;entryX=0.5;entryY=0;entryDx=0;entryDy=0;startArrow=none;startFill=0;endArrow=none;endFill=0;" parent="1" source="xfP3-g7Ia95GO5ueu19k-7" target="xfP3-g7Ia95GO5ueu19k-1" edge="1">
          <mxGeometry relative="1" as="geometry"/>
        </mxCell>
        <mxCell id="xfP3-g7Ia95GO5ueu19k-7" value="&lt;span&gt;flavour&lt;br&gt;&lt;/span&gt;" style="whiteSpace=wrap;html=1;rounded=1;shadow=1;comic=0;labelBackgroundColor=none;strokeColor=#000000;strokeWidth=2;fillColor=#FFFFFF;fontFamily=Verdana;fontSize=12;fontColor=#000000;align=center;arcSize=50;" parent="1" vertex="1">
          <mxGeometry x="1082.5" y="878" width="78" height="23" as="geometry"/>
        </mxCell>
        <mxCell id="xfP3-g7Ia95GO5ueu19k-15" style="edgeStyle=none;rounded=0;orthogonalLoop=1;jettySize=auto;html=1;exitX=0.5;exitY=1;exitDx=0;exitDy=0;entryX=0.25;entryY=0;entryDx=0;entryDy=0;startArrow=none;startFill=0;endArrow=none;endFill=0;" parent="1" source="xfP3-g7Ia95GO5ueu19k-8" target="xfP3-g7Ia95GO5ueu19k-1" edge="1">
          <mxGeometry relative="1" as="geometry"/>
        </mxCell>
        <mxCell id="xfP3-g7Ia95GO5ueu19k-8" value="price" style="whiteSpace=wrap;html=1;rounded=1;shadow=1;comic=0;labelBackgroundColor=none;strokeColor=#000000;strokeWidth=2;fillColor=#FFFFFF;fontFamily=Verdana;fontSize=12;fontColor=#000000;align=center;arcSize=50;" parent="1" vertex="1">
          <mxGeometry x="954" y="878" width="100" height="20" as="geometry"/>
        </mxCell>
        <mxCell id="xfP3-g7Ia95GO5ueu19k-9" value="&lt;span&gt;item unit qty&lt;/span&gt;" style="whiteSpace=wrap;html=1;rounded=1;shadow=1;comic=0;labelBackgroundColor=none;strokeColor=#000000;strokeWidth=2;fillColor=#FFFFFF;fontFamily=Verdana;fontSize=12;fontColor=#000000;align=center;arcSize=50;" parent="1" vertex="1">
          <mxGeometry x="1008.5" y="1107.5" width="100" height="20" as="geometry"/>
        </mxCell>
        <mxCell id="xfP3-g7Ia95GO5ueu19k-12" style="edgeStyle=none;rounded=0;orthogonalLoop=1;jettySize=auto;html=1;exitX=1;exitY=0.5;exitDx=0;exitDy=0;startArrow=none;startFill=0;endArrow=none;endFill=0;entryX=0.061;entryY=0.989;entryDx=0;entryDy=0;entryPerimeter=0;" parent="1" source="xfP3-g7Ia95GO5ueu19k-11" target="xfP3-g7Ia95GO5ueu19k-1" edge="1">
          <mxGeometry relative="1" as="geometry">
            <mxPoint x="960.5" y="1090" as="targetPoint"/>
          </mxGeometry>
        </mxCell>
        <mxCell id="xfP3-g7Ia95GO5ueu19k-11" value="&amp;nbsp;product_id" style="whiteSpace=wrap;html=1;rounded=1;shadow=1;comic=0;labelBackgroundColor=none;strokeColor=#6c8ebf;strokeWidth=2;fillColor=#dae8fc;fontFamily=Verdana;fontSize=12;align=center;arcSize=50;" parent="1" vertex="1">
          <mxGeometry x="870" y="1067.5" width="100" height="30" as="geometry"/>
        </mxCell>
        <mxCell id="xfP3-g7Ia95GO5ueu19k-30" value="&lt;span&gt;description&lt;/span&gt;" style="whiteSpace=wrap;html=1;rounded=1;shadow=1;comic=0;labelBackgroundColor=none;strokeColor=#000000;strokeWidth=2;fillColor=#FFFFFF;fontFamily=Verdana;fontSize=12;fontColor=#000000;align=center;arcSize=50;" parent="1" vertex="1">
          <mxGeometry x="1138" y="1097.5" width="79" height="20" as="geometry"/>
        </mxCell>
        <mxCell id="xfP3-g7Ia95GO5ueu19k-31" value="&lt;span&gt;images&lt;br&gt;&lt;/span&gt;" style="whiteSpace=wrap;html=1;rounded=1;shadow=1;comic=0;labelBackgroundColor=none;strokeColor=#000000;strokeWidth=2;fillColor=#FFFFFF;fontFamily=Verdana;fontSize=12;fontColor=#000000;align=center;arcSize=50;" parent="1" vertex="1">
          <mxGeometry x="1254" y="1038.5" width="78" height="23" as="geometry"/>
        </mxCell>
        <mxCell id="xfP3-g7Ia95GO5ueu19k-32" value="title" style="whiteSpace=wrap;html=1;rounded=1;shadow=1;comic=0;labelBackgroundColor=none;strokeColor=#000000;strokeWidth=2;fillColor=#FFFFFF;fontFamily=Verdana;fontSize=12;fontColor=#000000;align=center;arcSize=50;" parent="1" vertex="1">
          <mxGeometry x="1204.5" y="904.5" width="100" height="20" as="geometry"/>
        </mxCell>
        <mxCell id="xfP3-g7Ia95GO5ueu19k-42" value="PROCESSES" style="rhombus;whiteSpace=wrap;html=1;" parent="1" vertex="1">
          <mxGeometry x="1210" y="769.5" width="94" height="86" as="geometry"/>
        </mxCell>
        <mxCell id="xfP3-g7Ia95GO5ueu19k-54" style="edgeStyle=none;rounded=0;orthogonalLoop=1;jettySize=auto;html=1;exitX=1;exitY=0.5;exitDx=0;exitDy=0;entryX=0;entryY=0.5;entryDx=0;entryDy=0;entryPerimeter=0;startArrow=none;startFill=0;endArrow=ERoneToMany;endFill=0;" parent="1" source="xfP3-g7Ia95GO5ueu19k-45" target="xfP3-g7Ia95GO5ueu19k-49" edge="1">
          <mxGeometry relative="1" as="geometry"/>
        </mxCell>
        <mxCell id="xfP3-g7Ia95GO5ueu19k-45" value="HAS" style="rhombus;whiteSpace=wrap;html=1;dashed=1;" parent="1" vertex="1">
          <mxGeometry x="1274.5" y="945" width="80" height="80" as="geometry"/>
        </mxCell>
        <mxCell id="xfP3-g7Ia95GO5ueu19k-49" value="" style="verticalLabelPosition=bottom;verticalAlign=top;html=1;shape=mxgraph.basic.frame;dx=10;" parent="1" vertex="1">
          <mxGeometry x="1402.5" y="950" width="114" height="70" as="geometry"/>
        </mxCell>
        <mxCell id="xfP3-g7Ia95GO5ueu19k-50" value="CATEGORIES" style="text;html=1;resizable=0;points=[];autosize=1;align=left;verticalAlign=top;spacingTop=-4;" parent="1" vertex="1">
          <mxGeometry x="1417.5" y="975" width="90" height="20" as="geometry"/>
        </mxCell>
        <mxCell id="xfP3-g7Ia95GO5ueu19k-57" style="edgeStyle=none;rounded=0;orthogonalLoop=1;jettySize=auto;html=1;exitX=0.25;exitY=0;exitDx=0;exitDy=0;entryX=0;entryY=0;entryDx=85.5;entryDy=70;entryPerimeter=0;startArrow=none;startFill=0;endArrow=none;endFill=0;" parent="1" source="xfP3-g7Ia95GO5ueu19k-51" target="xfP3-g7Ia95GO5ueu19k-49" edge="1">
          <mxGeometry relative="1" as="geometry"/>
        </mxCell>
        <mxCell id="xfP3-g7Ia95GO5ueu19k-51" value="&lt;span&gt;name&lt;/span&gt;" style="whiteSpace=wrap;html=1;rounded=1;shadow=1;comic=0;labelBackgroundColor=none;strokeColor=#000000;strokeWidth=2;fillColor=#FFFFFF;fontFamily=Verdana;fontSize=12;fontColor=#000000;align=center;arcSize=50;" parent="1" vertex="1">
          <mxGeometry x="1482" y="1072.5" width="100" height="20" as="geometry"/>
        </mxCell>
        <mxCell id="xfP3-g7Ia95GO5ueu19k-56" style="edgeStyle=none;rounded=0;orthogonalLoop=1;jettySize=auto;html=1;exitX=0;exitY=0.5;exitDx=0;exitDy=0;entryX=0;entryY=0;entryDx=114;entryDy=52.5;entryPerimeter=0;startArrow=none;startFill=0;endArrow=none;endFill=0;" parent="1" source="xfP3-g7Ia95GO5ueu19k-52" target="xfP3-g7Ia95GO5ueu19k-49" edge="1">
          <mxGeometry relative="1" as="geometry"/>
        </mxCell>
        <mxCell id="xfP3-g7Ia95GO5ueu19k-52" value="&lt;span&gt;category_id&lt;/span&gt;" style="whiteSpace=wrap;html=1;rounded=1;shadow=1;comic=0;labelBackgroundColor=none;strokeColor=#6c8ebf;strokeWidth=2;fillColor=#dae8fc;fontFamily=Verdana;fontSize=12;align=center;arcSize=50;" parent="1" vertex="1">
          <mxGeometry x="1563" y="1022.5" width="100" height="30" as="geometry"/>
        </mxCell>
        <mxCell id="xfP3-g7Ia95GO5ueu19k-55" style="edgeStyle=none;rounded=0;orthogonalLoop=1;jettySize=auto;html=1;exitX=0;exitY=0.5;exitDx=0;exitDy=0;entryX=0;entryY=0;entryDx=114;entryDy=17.5;entryPerimeter=0;startArrow=none;startFill=0;endArrow=none;endFill=0;" parent="1" source="xfP3-g7Ia95GO5ueu19k-53" target="xfP3-g7Ia95GO5ueu19k-49" edge="1">
          <mxGeometry relative="1" as="geometry"/>
        </mxCell>
        <mxCell id="xfP3-g7Ia95GO5ueu19k-53" value="&lt;span&gt;product_id&lt;/span&gt;" style="whiteSpace=wrap;html=1;rounded=1;shadow=1;comic=0;labelBackgroundColor=none;strokeColor=#d79b00;strokeWidth=2;fillColor=#ffe6cc;fontFamily=Verdana;fontSize=12;align=center;arcSize=50;" parent="1" vertex="1">
          <mxGeometry x="1563" y="957.5" width="100" height="20" as="geometry"/>
        </mxCell>
        <mxCell id="xfP3-g7Ia95GO5ueu19k-90" style="edgeStyle=none;rounded=0;orthogonalLoop=1;jettySize=auto;html=1;exitX=0.5;exitY=0;exitDx=0;exitDy=0;entryX=0.5;entryY=1;entryDx=0;entryDy=0;startArrow=none;startFill=0;endArrow=none;endFill=0;" parent="1" source="xfP3-g7Ia95GO5ueu19k-61" target="udSbVJcAe-gZIi7dI9ab-13" edge="1">
          <mxGeometry relative="1" as="geometry"/>
        </mxCell>
        <mxCell id="xfP3-g7Ia95GO5ueu19k-91" style="edgeStyle=none;rounded=0;orthogonalLoop=1;jettySize=auto;html=1;exitX=0.5;exitY=0;exitDx=0;exitDy=0;entryX=0.5;entryY=1;entryDx=0;entryDy=0;startArrow=none;startFill=0;endArrow=none;endFill=0;" parent="1" source="udSbVJcAe-gZIi7dI9ab-13" target="udSbVJcAe-gZIi7dI9ab-14" edge="1">
          <mxGeometry relative="1" as="geometry"/>
        </mxCell>
        <mxCell id="xfP3-g7Ia95GO5ueu19k-92" style="edgeStyle=none;rounded=0;orthogonalLoop=1;jettySize=auto;html=1;exitX=0.25;exitY=0;exitDx=0;exitDy=0;entryX=0.25;entryY=1;entryDx=0;entryDy=0;startArrow=none;startFill=0;endArrow=none;endFill=0;" parent="1" source="xfP3-g7Ia95GO5ueu19k-61" target="udSbVJcAe-gZIi7dI9ab-12" edge="1">
          <mxGeometry relative="1" as="geometry"/>
        </mxCell>
        <mxCell id="xfP3-g7Ia95GO5ueu19k-115" style="edgeStyle=none;rounded=0;orthogonalLoop=1;jettySize=auto;html=1;exitX=1;exitY=0.25;exitDx=0;exitDy=0;entryX=0;entryY=1;entryDx=0;entryDy=0;startArrow=none;startFill=0;endArrow=none;endFill=0;" parent="1" source="xfP3-g7Ia95GO5ueu19k-61" target="udSbVJcAe-gZIi7dI9ab-31" edge="1">
          <mxGeometry relative="1" as="geometry"/>
        </mxCell>
        <mxCell id="xfP3-g7Ia95GO5ueu19k-129" style="edgeStyle=none;rounded=0;orthogonalLoop=1;jettySize=auto;html=1;exitX=1;exitY=0.75;exitDx=0;exitDy=0;entryX=0;entryY=0.5;entryDx=0;entryDy=0;startArrow=ERoneToMany;startFill=0;endArrow=none;endFill=0;" parent="1" source="xfP3-g7Ia95GO5ueu19k-61" target="udSbVJcAe-gZIi7dI9ab-57" edge="1">
          <mxGeometry relative="1" as="geometry"/>
        </mxCell>
        <mxCell id="Zrgbr4FFBKcwLw_hIRoL-82" style="edgeStyle=none;rounded=0;orthogonalLoop=1;jettySize=auto;html=1;exitX=0.75;exitY=1;exitDx=0;exitDy=0;entryX=0.5;entryY=0;entryDx=0;entryDy=0;startArrow=none;startFill=0;endArrow=none;endFill=0;" edge="1" parent="1" source="xfP3-g7Ia95GO5ueu19k-61" target="Zrgbr4FFBKcwLw_hIRoL-127">
          <mxGeometry relative="1" as="geometry">
            <mxPoint x="1529" y="712.5" as="targetPoint"/>
          </mxGeometry>
        </mxCell>
        <mxCell id="Zrgbr4FFBKcwLw_hIRoL-129" style="edgeStyle=none;rounded=0;orthogonalLoop=1;jettySize=auto;html=1;exitX=1;exitY=0.5;exitDx=0;exitDy=0;entryX=0;entryY=0.5;entryDx=0;entryDy=0;startArrow=none;startFill=0;endArrow=none;endFill=0;" edge="1" parent="1" source="xfP3-g7Ia95GO5ueu19k-61" target="Zrgbr4FFBKcwLw_hIRoL-128">
          <mxGeometry relative="1" as="geometry"/>
        </mxCell>
        <mxCell id="xfP3-g7Ia95GO5ueu19k-61" value="EMPLOYEE" style="rounded=0;whiteSpace=wrap;html=1;" parent="1" vertex="1">
          <mxGeometry x="1399.5" y="590.5" width="120" height="60" as="geometry"/>
        </mxCell>
        <mxCell id="xfP3-g7Ia95GO5ueu19k-80" style="edgeStyle=none;rounded=0;orthogonalLoop=1;jettySize=auto;html=1;exitX=0.39;exitY=0.929;exitDx=0;exitDy=0;exitPerimeter=0;entryX=0.5;entryY=0;entryDx=0;entryDy=0;startArrow=ERzeroToMany;startFill=1;endArrow=classic;endFill=1;" parent="1" source="xfP3-g7Ia95GO5ueu19k-62" target="udSbVJcAe-gZIi7dI9ab-10" edge="1">
          <mxGeometry relative="1" as="geometry"/>
        </mxCell>
        <mxCell id="xfP3-g7Ia95GO5ueu19k-87" style="edgeStyle=none;rounded=0;orthogonalLoop=1;jettySize=auto;html=1;exitX=1;exitY=0.5;exitDx=0;exitDy=0;exitPerimeter=0;entryX=0;entryY=0.5;entryDx=0;entryDy=0;startArrow=ERzeroToMany;startFill=1;endArrow=none;endFill=0;" parent="1" source="xfP3-g7Ia95GO5ueu19k-62" target="xfP3-g7Ia95GO5ueu19k-86" edge="1">
          <mxGeometry relative="1" as="geometry"/>
        </mxCell>
        <mxCell id="xfP3-g7Ia95GO5ueu19k-62" value="" style="verticalLabelPosition=bottom;verticalAlign=top;html=1;shape=mxgraph.basic.frame;dx=10;" parent="1" vertex="1">
          <mxGeometry x="985.5" y="425" width="114" height="70" as="geometry"/>
        </mxCell>
        <mxCell id="xfP3-g7Ia95GO5ueu19k-63" value="ORDER" style="text;html=1;resizable=0;points=[];autosize=1;align=left;verticalAlign=top;spacingTop=-4;" parent="1" vertex="1">
          <mxGeometry x="1017.5" y="450" width="60" height="20" as="geometry"/>
        </mxCell>
        <mxCell id="xfP3-g7Ia95GO5ueu19k-88" style="edgeStyle=none;rounded=0;orthogonalLoop=1;jettySize=auto;html=1;exitX=1;exitY=0.5;exitDx=0;exitDy=0;startArrow=classic;startFill=1;endArrow=ERone;endFill=0;" parent="1" source="xfP3-g7Ia95GO5ueu19k-86" edge="1">
          <mxGeometry relative="1" as="geometry">
            <mxPoint x="1398" y="590" as="targetPoint"/>
          </mxGeometry>
        </mxCell>
        <mxCell id="xfP3-g7Ia95GO5ueu19k-86" value="PROCESSES" style="rhombus;whiteSpace=wrap;html=1;" parent="1" vertex="1">
          <mxGeometry x="1200" y="440" width="88" height="85" as="geometry"/>
        </mxCell>
        <mxCell id="xfP3-g7Ia95GO5ueu19k-152" style="edgeStyle=none;rounded=0;orthogonalLoop=1;jettySize=auto;html=1;exitX=0.75;exitY=1;exitDx=0;exitDy=0;entryX=0;entryY=0.5;entryDx=0;entryDy=0;startArrow=none;startFill=0;endArrow=none;endFill=0;" parent="1" source="xfP3-g7Ia95GO5ueu19k-97" target="udSbVJcAe-gZIi7dI9ab-31" edge="1">
          <mxGeometry relative="1" as="geometry"/>
        </mxCell>
        <mxCell id="xfP3-g7Ia95GO5ueu19k-97" value="&lt;span&gt;country&lt;/span&gt;" style="whiteSpace=wrap;html=1;rounded=1;shadow=1;comic=0;labelBackgroundColor=none;strokeColor=#000000;strokeWidth=2;fillColor=#FFFFFF;fontFamily=Verdana;fontSize=12;fontColor=#000000;align=center;arcSize=50;dashed=1;dashPattern=1 1;" parent="1" vertex="1">
          <mxGeometry x="1726" y="377.5" width="100" height="20" as="geometry"/>
        </mxCell>
        <mxCell id="xfP3-g7Ia95GO5ueu19k-156" style="edgeStyle=none;rounded=0;orthogonalLoop=1;jettySize=auto;html=1;exitX=0;exitY=0.5;exitDx=0;exitDy=0;entryX=1;entryY=0.5;entryDx=0;entryDy=0;startArrow=none;startFill=0;endArrow=none;endFill=0;" parent="1" source="xfP3-g7Ia95GO5ueu19k-98" target="udSbVJcAe-gZIi7dI9ab-31" edge="1">
          <mxGeometry relative="1" as="geometry"/>
        </mxCell>
        <mxCell id="xfP3-g7Ia95GO5ueu19k-98" value="&lt;span&gt;house/apt No.&lt;/span&gt;" style="whiteSpace=wrap;html=1;rounded=1;shadow=1;comic=0;labelBackgroundColor=none;strokeColor=#000000;strokeWidth=2;fillColor=#FFFFFF;fontFamily=Verdana;fontSize=12;fontColor=#000000;align=center;arcSize=50;dashed=1;dashPattern=1 1;" parent="1" vertex="1">
          <mxGeometry x="2070" y="427" width="100" height="20" as="geometry"/>
        </mxCell>
        <mxCell id="xfP3-g7Ia95GO5ueu19k-154" style="edgeStyle=none;rounded=0;orthogonalLoop=1;jettySize=auto;html=1;exitX=0.25;exitY=1;exitDx=0;exitDy=0;entryX=0.5;entryY=0;entryDx=0;entryDy=0;startArrow=none;startFill=0;endArrow=none;endFill=0;" parent="1" source="xfP3-g7Ia95GO5ueu19k-99" target="udSbVJcAe-gZIi7dI9ab-31" edge="1">
          <mxGeometry relative="1" as="geometry"/>
        </mxCell>
        <mxCell id="xfP3-g7Ia95GO5ueu19k-99" value="town" style="whiteSpace=wrap;html=1;rounded=1;shadow=1;comic=0;labelBackgroundColor=none;strokeColor=#000000;strokeWidth=2;fillColor=#FFFFFF;fontFamily=Verdana;fontSize=12;fontColor=#000000;align=center;arcSize=50;dashed=1;dashPattern=1 1;" parent="1" vertex="1">
          <mxGeometry x="1961" y="335" width="100" height="20" as="geometry"/>
        </mxCell>
        <mxCell id="xfP3-g7Ia95GO5ueu19k-100" value="&lt;span&gt;street&lt;/span&gt;" style="whiteSpace=wrap;html=1;rounded=1;shadow=1;comic=0;labelBackgroundColor=none;strokeColor=#000000;strokeWidth=2;fillColor=#FFFFFF;fontFamily=Verdana;fontSize=12;fontColor=#000000;align=center;arcSize=50;dashed=1;dashPattern=1 1;" parent="1" vertex="1">
          <mxGeometry x="2026" y="377.5" width="100" height="20" as="geometry"/>
        </mxCell>
        <mxCell id="xfP3-g7Ia95GO5ueu19k-153" style="edgeStyle=none;rounded=0;orthogonalLoop=1;jettySize=auto;html=1;exitX=0.25;exitY=1;exitDx=0;exitDy=0;entryX=0;entryY=0;entryDx=0;entryDy=0;startArrow=none;startFill=0;endArrow=none;endFill=0;" parent="1" source="xfP3-g7Ia95GO5ueu19k-101" target="udSbVJcAe-gZIi7dI9ab-31" edge="1">
          <mxGeometry relative="1" as="geometry"/>
        </mxCell>
        <mxCell id="xfP3-g7Ia95GO5ueu19k-101" value="&lt;span&gt;city&lt;/span&gt;" style="whiteSpace=wrap;html=1;rounded=1;shadow=1;comic=0;labelBackgroundColor=none;strokeColor=#000000;strokeWidth=2;fillColor=#FFFFFF;fontFamily=Verdana;fontSize=12;fontColor=#000000;align=center;arcSize=50;dashed=1;dashPattern=1 1;" parent="1" vertex="1">
          <mxGeometry x="1846" y="345" width="100" height="20" as="geometry"/>
        </mxCell>
        <mxCell id="xfP3-g7Ia95GO5ueu19k-107" style="edgeStyle=none;rounded=0;orthogonalLoop=1;jettySize=auto;html=1;exitX=0.5;exitY=0;exitDx=0;exitDy=0;entryX=0.25;entryY=1;entryDx=0;entryDy=0;startArrow=none;startFill=0;endArrow=none;endFill=0;" parent="1" source="xfP3-g7Ia95GO5ueu19k-104" target="xfP3-g7Ia95GO5ueu19k-61" edge="1">
          <mxGeometry relative="1" as="geometry"/>
        </mxCell>
        <mxCell id="xfP3-g7Ia95GO5ueu19k-104" value="position" style="whiteSpace=wrap;html=1;rounded=1;shadow=1;comic=0;labelBackgroundColor=none;strokeColor=#000000;strokeWidth=2;fillColor=#FFFFFF;fontFamily=Verdana;fontSize=12;fontColor=#000000;align=center;arcSize=50;" parent="1" vertex="1">
          <mxGeometry x="1345.5" y="746.5" width="100" height="20" as="geometry"/>
        </mxCell>
        <mxCell id="xfP3-g7Ia95GO5ueu19k-110" style="edgeStyle=none;rounded=0;orthogonalLoop=1;jettySize=auto;html=1;exitX=0.5;exitY=0;exitDx=0;exitDy=0;startArrow=none;startFill=0;endArrow=none;endFill=0;" parent="1" source="xfP3-g7Ia95GO5ueu19k-105" target="xfP3-g7Ia95GO5ueu19k-61" edge="1">
          <mxGeometry relative="1" as="geometry"/>
        </mxCell>
        <mxCell id="xfP3-g7Ia95GO5ueu19k-105" value="employee_id" style="whiteSpace=wrap;html=1;rounded=1;shadow=1;comic=0;labelBackgroundColor=none;strokeColor=#6c8ebf;strokeWidth=2;fillColor=#dae8fc;fontFamily=Verdana;fontSize=12;align=center;arcSize=50;" parent="1" vertex="1">
          <mxGeometry x="1409.5" y="792.5" width="100" height="20" as="geometry"/>
        </mxCell>
        <mxCell id="xfP3-g7Ia95GO5ueu19k-111" style="edgeStyle=none;rounded=0;orthogonalLoop=1;jettySize=auto;html=1;exitX=0.5;exitY=0;exitDx=0;exitDy=0;entryX=0.5;entryY=1;entryDx=0;entryDy=0;startArrow=none;startFill=0;endArrow=none;endFill=0;" parent="1" source="xfP3-g7Ia95GO5ueu19k-106" target="xfP3-g7Ia95GO5ueu19k-61" edge="1">
          <mxGeometry relative="1" as="geometry"/>
        </mxCell>
        <mxCell id="xfP3-g7Ia95GO5ueu19k-106" value="salary" style="whiteSpace=wrap;html=1;rounded=1;shadow=1;comic=0;labelBackgroundColor=none;strokeColor=#000000;strokeWidth=2;fillColor=#FFFFFF;fontFamily=Verdana;fontSize=12;fontColor=#000000;align=center;arcSize=50;" parent="1" vertex="1">
          <mxGeometry x="1484" y="760" width="71" height="20" as="geometry"/>
        </mxCell>
        <mxCell id="xfP3-g7Ia95GO5ueu19k-141" style="edgeStyle=none;rounded=0;orthogonalLoop=1;jettySize=auto;html=1;exitX=0.5;exitY=0;exitDx=0;exitDy=0;exitPerimeter=0;entryX=0.5;entryY=1;entryDx=0;entryDy=0;startArrow=none;startFill=0;endArrow=none;endFill=0;" parent="1" source="xfP3-g7Ia95GO5ueu19k-125" target="xfP3-g7Ia95GO5ueu19k-140" edge="1">
          <mxGeometry relative="1" as="geometry"/>
        </mxCell>
        <mxCell id="xfP3-g7Ia95GO5ueu19k-125" value="" style="verticalLabelPosition=bottom;verticalAlign=top;html=1;shape=mxgraph.basic.frame;dx=10;" parent="1" vertex="1">
          <mxGeometry x="1889" y="735" width="114" height="70" as="geometry"/>
        </mxCell>
        <mxCell id="xfP3-g7Ia95GO5ueu19k-126" value="WAGES" style="text;html=1;resizable=0;points=[];autosize=1;align=left;verticalAlign=top;spacingTop=-4;" parent="1" vertex="1">
          <mxGeometry x="1916" y="757.5" width="60" height="20" as="geometry"/>
        </mxCell>
        <mxCell id="xfP3-g7Ia95GO5ueu19k-140" value="bonuses" style="whiteSpace=wrap;html=1;rounded=1;shadow=1;comic=0;labelBackgroundColor=none;strokeColor=#000000;strokeWidth=2;fillColor=#FFFFFF;fontFamily=Verdana;fontSize=12;fontColor=#000000;align=center;arcSize=50;" parent="1" vertex="1">
          <mxGeometry x="1911" y="684" width="100" height="20" as="geometry"/>
        </mxCell>
        <mxCell id="xfP3-g7Ia95GO5ueu19k-157" value="" style="rounded=0;whiteSpace=wrap;html=1;strokeWidth=3;" parent="1" vertex="1">
          <mxGeometry x="1677" y="1143" width="653" height="328" as="geometry"/>
        </mxCell>
        <mxCell id="xfP3-g7Ia95GO5ueu19k-158" value="&lt;font style=&quot;font-size: 22px&quot;&gt;KEYS&lt;/font&gt;" style="text;html=1;strokeColor=none;fillColor=none;align=center;verticalAlign=middle;whiteSpace=wrap;rounded=0;dashed=1;dashPattern=1 1;" parent="1" vertex="1">
          <mxGeometry x="1956" y="1170" width="40" height="20" as="geometry"/>
        </mxCell>
        <mxCell id="xfP3-g7Ia95GO5ueu19k-160" value="" style="verticalLabelPosition=bottom;verticalAlign=top;html=1;shape=mxgraph.basic.frame;dx=10;" parent="1" vertex="1">
          <mxGeometry x="2074" y="1210" width="114" height="70" as="geometry"/>
        </mxCell>
        <mxCell id="xfP3-g7Ia95GO5ueu19k-161" value="WEAK ENTITY" style="text;html=1;resizable=0;points=[];autosize=1;align=left;verticalAlign=top;spacingTop=-4;" parent="1" vertex="1">
          <mxGeometry x="2091" y="1235" width="100" height="20" as="geometry"/>
        </mxCell>
        <mxCell id="xfP3-g7Ia95GO5ueu19k-162" value="STRONG RELATIONSHIP" style="rhombus;whiteSpace=wrap;html=1;" parent="1" vertex="1">
          <mxGeometry x="1696" y="1192.5" width="114" height="105" as="geometry"/>
        </mxCell>
        <mxCell id="xfP3-g7Ia95GO5ueu19k-164" value="STRONG ENTITY" style="rounded=0;whiteSpace=wrap;html=1;" parent="1" vertex="1">
          <mxGeometry x="1931" y="1215" width="120" height="60" as="geometry"/>
        </mxCell>
        <mxCell id="xfP3-g7Ia95GO5ueu19k-165" value="&lt;span&gt;primary key&lt;/span&gt;" style="whiteSpace=wrap;html=1;rounded=1;shadow=1;comic=0;labelBackgroundColor=none;strokeColor=#6c8ebf;strokeWidth=2;fillColor=#dae8fc;fontFamily=Verdana;fontSize=12;align=center;arcSize=50;" parent="1" vertex="1">
          <mxGeometry x="2210" y="1177.5" width="100" height="30" as="geometry"/>
        </mxCell>
        <mxCell id="xfP3-g7Ia95GO5ueu19k-166" value="WEAK RELATIONSHIP" style="rhombus;whiteSpace=wrap;html=1;dashed=1;" parent="1" vertex="1">
          <mxGeometry x="1816" y="1192.5" width="106" height="105" as="geometry"/>
        </mxCell>
        <mxCell id="Zrgbr4FFBKcwLw_hIRoL-156" style="edgeStyle=none;rounded=0;orthogonalLoop=1;jettySize=auto;html=1;exitX=1;exitY=0.5;exitDx=0;exitDy=0;exitPerimeter=0;entryX=0;entryY=0.5;entryDx=0;entryDy=0;startArrow=none;startFill=0;endArrow=none;endFill=0;" edge="1" parent="1" source="xfP3-g7Ia95GO5ueu19k-167" target="Zrgbr4FFBKcwLw_hIRoL-22">
          <mxGeometry relative="1" as="geometry"/>
        </mxCell>
        <mxCell id="Zrgbr4FFBKcwLw_hIRoL-162" style="edgeStyle=none;rounded=0;orthogonalLoop=1;jettySize=auto;html=1;exitX=0;exitY=0;exitDx=118;exitDy=18.5;exitPerimeter=0;entryX=0;entryY=0.75;entryDx=0;entryDy=0;startArrow=none;startFill=0;endArrow=none;endFill=0;" edge="1" parent="1" source="xfP3-g7Ia95GO5ueu19k-167" target="Zrgbr4FFBKcwLw_hIRoL-161">
          <mxGeometry relative="1" as="geometry"/>
        </mxCell>
        <mxCell id="xfP3-g7Ia95GO5ueu19k-167" value="" style="verticalLabelPosition=bottom;verticalAlign=top;html=1;shape=mxgraph.basic.frame;dx=10;" parent="1" vertex="1">
          <mxGeometry x="988.5" y="733.5" width="118" height="74" as="geometry"/>
        </mxCell>
        <mxCell id="xfP3-g7Ia95GO5ueu19k-171" value="SHIPPING&lt;br&gt;COMPANY" style="text;html=1;strokeColor=none;fillColor=none;align=center;verticalAlign=middle;whiteSpace=wrap;rounded=0;dashed=1;" parent="1" vertex="1">
          <mxGeometry x="1011.5" y="751.5" width="69" height="35" as="geometry"/>
        </mxCell>
        <mxCell id="Zrgbr4FFBKcwLw_hIRoL-22" value="&lt;span&gt;company name&lt;/span&gt;" style="whiteSpace=wrap;html=1;rounded=1;shadow=1;comic=0;labelBackgroundColor=none;strokeColor=#000000;strokeWidth=2;fillColor=#FFFFFF;fontFamily=Verdana;fontSize=12;fontColor=#000000;align=center;arcSize=50;" vertex="1" parent="1">
          <mxGeometry x="1141" y="750.5" width="100" height="20" as="geometry"/>
        </mxCell>
        <mxCell id="Zrgbr4FFBKcwLw_hIRoL-29" value="&lt;span&gt;foreign key&lt;/span&gt;" style="whiteSpace=wrap;html=1;rounded=1;shadow=1;comic=0;labelBackgroundColor=none;strokeColor=#d79b00;strokeWidth=2;fillColor=#ffe6cc;fontFamily=Verdana;fontSize=12;align=center;arcSize=50;" vertex="1" parent="1">
          <mxGeometry x="2210" y="1240" width="100" height="30" as="geometry"/>
        </mxCell>
        <mxCell id="Zrgbr4FFBKcwLw_hIRoL-164" style="edgeStyle=none;rounded=0;orthogonalLoop=1;jettySize=auto;html=1;exitX=1;exitY=1;exitDx=0;exitDy=0;exitPerimeter=0;entryX=0.142;entryY=0.035;entryDx=0;entryDy=0;entryPerimeter=0;startArrow=none;startFill=0;endArrow=none;endFill=0;" edge="1" parent="1" source="Zrgbr4FFBKcwLw_hIRoL-38" target="Zrgbr4FFBKcwLw_hIRoL-163">
          <mxGeometry relative="1" as="geometry"/>
        </mxCell>
        <mxCell id="Zrgbr4FFBKcwLw_hIRoL-38" value="" style="verticalLabelPosition=bottom;verticalAlign=top;html=1;shape=mxgraph.basic.frame;dx=10;" vertex="1" parent="1">
          <mxGeometry x="610" y="1030" width="113" height="70" as="geometry"/>
        </mxCell>
        <mxCell id="Zrgbr4FFBKcwLw_hIRoL-39" value="SUPPLIER" style="text;html=1;strokeColor=none;fillColor=none;align=center;verticalAlign=middle;whiteSpace=wrap;rounded=0;dashed=1;" vertex="1" parent="1">
          <mxGeometry x="629" y="1044" width="69" height="35" as="geometry"/>
        </mxCell>
        <mxCell id="Zrgbr4FFBKcwLw_hIRoL-46" style="edgeStyle=none;rounded=0;orthogonalLoop=1;jettySize=auto;html=1;exitX=0.75;exitY=0;exitDx=0;exitDy=0;entryX=0;entryY=1;entryDx=0;entryDy=0;entryPerimeter=0;startArrow=none;startFill=0;endArrow=none;endFill=0;" edge="1" parent="1" source="Zrgbr4FFBKcwLw_hIRoL-41" target="Zrgbr4FFBKcwLw_hIRoL-38">
          <mxGeometry relative="1" as="geometry"/>
        </mxCell>
        <mxCell id="Zrgbr4FFBKcwLw_hIRoL-41" value="&lt;span&gt;supplier_id&lt;/span&gt;" style="whiteSpace=wrap;html=1;rounded=1;shadow=1;comic=0;labelBackgroundColor=none;strokeColor=#6c8ebf;strokeWidth=2;fillColor=#dae8fc;fontFamily=Verdana;fontSize=12;align=center;arcSize=50;" vertex="1" parent="1">
          <mxGeometry x="470" y="1134" width="100" height="33" as="geometry"/>
        </mxCell>
        <mxCell id="Zrgbr4FFBKcwLw_hIRoL-48" style="edgeStyle=none;rounded=0;orthogonalLoop=1;jettySize=auto;html=1;entryX=0.5;entryY=1;entryDx=0;entryDy=0;entryPerimeter=0;startArrow=none;startFill=0;endArrow=none;endFill=0;" edge="1" parent="1" source="Zrgbr4FFBKcwLw_hIRoL-42" target="Zrgbr4FFBKcwLw_hIRoL-38">
          <mxGeometry relative="1" as="geometry"/>
        </mxCell>
        <mxCell id="Zrgbr4FFBKcwLw_hIRoL-42" value="&lt;span&gt;company name&lt;/span&gt;" style="whiteSpace=wrap;html=1;rounded=1;shadow=1;comic=0;labelBackgroundColor=none;strokeColor=#000000;strokeWidth=2;fillColor=#FFFFFF;fontFamily=Verdana;fontSize=12;fontColor=#000000;align=center;arcSize=50;" vertex="1" parent="1">
          <mxGeometry x="613.5" y="1160" width="100" height="20" as="geometry"/>
        </mxCell>
        <mxCell id="Zrgbr4FFBKcwLw_hIRoL-44" style="edgeStyle=none;rounded=0;orthogonalLoop=1;jettySize=auto;html=1;exitX=0;exitY=0.5;exitDx=0;exitDy=0;entryX=0.992;entryY=0.434;entryDx=0;entryDy=0;entryPerimeter=0;startArrow=none;startFill=0;endArrow=none;endFill=0;" edge="1" parent="1" source="Zrgbr4FFBKcwLw_hIRoL-43" target="Zrgbr4FFBKcwLw_hIRoL-38">
          <mxGeometry relative="1" as="geometry"/>
        </mxCell>
        <mxCell id="Zrgbr4FFBKcwLw_hIRoL-45" style="edgeStyle=none;rounded=0;orthogonalLoop=1;jettySize=auto;html=1;exitX=1;exitY=0.5;exitDx=0;exitDy=0;entryX=0;entryY=0.75;entryDx=0;entryDy=0;startArrow=none;startFill=0;endArrow=none;endFill=0;" edge="1" parent="1" source="Zrgbr4FFBKcwLw_hIRoL-43" target="xfP3-g7Ia95GO5ueu19k-1">
          <mxGeometry relative="1" as="geometry"/>
        </mxCell>
        <mxCell id="Zrgbr4FFBKcwLw_hIRoL-43" value="SUPPLIED BY" style="rhombus;whiteSpace=wrap;html=1;dashed=1;" vertex="1" parent="1">
          <mxGeometry x="795.5" y="1012.5" width="80" height="80" as="geometry"/>
        </mxCell>
        <mxCell id="Zrgbr4FFBKcwLw_hIRoL-118" style="edgeStyle=none;rounded=0;orthogonalLoop=1;jettySize=auto;html=1;exitX=0.5;exitY=1;exitDx=0;exitDy=0;startArrow=none;startFill=0;endArrow=none;endFill=0;" edge="1" parent="1" source="Zrgbr4FFBKcwLw_hIRoL-52" target="t0DPVlEd7K-99LzI1tXL-1">
          <mxGeometry relative="1" as="geometry"/>
        </mxCell>
        <mxCell id="Zrgbr4FFBKcwLw_hIRoL-52" value="&lt;span&gt;email&lt;/span&gt;" style="whiteSpace=wrap;html=1;rounded=1;shadow=1;comic=0;labelBackgroundColor=none;strokeColor=#000000;strokeWidth=2;fillColor=#FFFFFF;fontFamily=Verdana;fontSize=12;fontColor=#000000;align=center;arcSize=50;" vertex="1" parent="1">
          <mxGeometry x="410" y="330" width="100" height="20" as="geometry"/>
        </mxCell>
        <mxCell id="Zrgbr4FFBKcwLw_hIRoL-119" style="edgeStyle=none;rounded=0;orthogonalLoop=1;jettySize=auto;html=1;exitX=0.5;exitY=1;exitDx=0;exitDy=0;startArrow=none;startFill=0;endArrow=none;endFill=0;" edge="1" parent="1" source="Zrgbr4FFBKcwLw_hIRoL-53" target="t0DPVlEd7K-99LzI1tXL-1">
          <mxGeometry relative="1" as="geometry"/>
        </mxCell>
        <mxCell id="Zrgbr4FFBKcwLw_hIRoL-53" value="&lt;span&gt;phone&lt;/span&gt;" style="whiteSpace=wrap;html=1;rounded=1;shadow=1;comic=0;labelBackgroundColor=none;strokeColor=#000000;strokeWidth=2;fillColor=#FFFFFF;fontFamily=Verdana;fontSize=12;fontColor=#000000;align=center;arcSize=50;" vertex="1" parent="1">
          <mxGeometry x="493" y="362.5" width="100" height="20" as="geometry"/>
        </mxCell>
        <mxCell id="Zrgbr4FFBKcwLw_hIRoL-93" value="f_name" style="whiteSpace=wrap;html=1;rounded=1;shadow=1;comic=0;labelBackgroundColor=none;strokeColor=#000000;strokeWidth=2;fillColor=#FFFFFF;fontFamily=Verdana;fontSize=12;fontColor=#000000;align=center;arcSize=50;" vertex="1" parent="1">
          <mxGeometry x="2188" y="595" width="100" height="20" as="geometry"/>
        </mxCell>
        <mxCell id="Zrgbr4FFBKcwLw_hIRoL-96" style="edgeStyle=none;rounded=0;orthogonalLoop=1;jettySize=auto;html=1;exitX=0;exitY=0.5;exitDx=0;exitDy=0;entryX=0.75;entryY=1;entryDx=0;entryDy=0;startArrow=none;startFill=0;endArrow=none;endFill=0;" edge="1" parent="1" source="Zrgbr4FFBKcwLw_hIRoL-95" target="udSbVJcAe-gZIi7dI9ab-52">
          <mxGeometry relative="1" as="geometry"/>
        </mxCell>
        <mxCell id="Zrgbr4FFBKcwLw_hIRoL-95" value="l_name" style="whiteSpace=wrap;html=1;rounded=1;shadow=1;comic=0;labelBackgroundColor=none;strokeColor=#000000;strokeWidth=2;fillColor=#FFFFFF;fontFamily=Verdana;fontSize=12;fontColor=#000000;align=center;arcSize=50;" vertex="1" parent="1">
          <mxGeometry x="2220" y="647.5" width="100" height="20" as="geometry"/>
        </mxCell>
        <mxCell id="Zrgbr4FFBKcwLw_hIRoL-113" style="edgeStyle=none;rounded=0;orthogonalLoop=1;jettySize=auto;html=1;exitX=0.75;exitY=1;exitDx=0;exitDy=0;entryX=0.5;entryY=0;entryDx=0;entryDy=0;startArrow=none;startFill=0;endArrow=none;endFill=0;" edge="1" parent="1" source="Zrgbr4FFBKcwLw_hIRoL-121" target="t0DPVlEd7K-99LzI1tXL-26">
          <mxGeometry relative="1" as="geometry">
            <mxPoint x="350.75" y="645" as="sourcePoint"/>
          </mxGeometry>
        </mxCell>
        <mxCell id="Zrgbr4FFBKcwLw_hIRoL-122" style="edgeStyle=none;rounded=0;orthogonalLoop=1;jettySize=auto;html=1;exitX=0.75;exitY=0;exitDx=0;exitDy=0;entryX=0.003;entryY=0.98;entryDx=0;entryDy=0;entryPerimeter=0;startArrow=none;startFill=0;endArrow=none;endFill=0;" edge="1" parent="1" source="Zrgbr4FFBKcwLw_hIRoL-121" target="t0DPVlEd7K-99LzI1tXL-1">
          <mxGeometry relative="1" as="geometry"/>
        </mxCell>
        <mxCell id="Zrgbr4FFBKcwLw_hIRoL-121" value="payment details" style="whiteSpace=wrap;html=1;rounded=1;shadow=1;comic=0;labelBackgroundColor=none;strokeColor=#000000;strokeWidth=2;fillColor=#FFFFFF;fontFamily=Verdana;fontSize=12;fontColor=#000000;align=center;arcSize=50;" vertex="1" parent="1">
          <mxGeometry x="280" y="576.5" width="110" height="31" as="geometry"/>
        </mxCell>
        <mxCell id="Zrgbr4FFBKcwLw_hIRoL-126" style="edgeStyle=none;rounded=0;orthogonalLoop=1;jettySize=auto;html=1;exitX=1;exitY=0.5;exitDx=0;exitDy=0;startArrow=none;startFill=0;endArrow=none;endFill=0;" edge="1" parent="1" source="Zrgbr4FFBKcwLw_hIRoL-123" target="SIIoMTfQmOXYOQuS74W--26">
          <mxGeometry relative="1" as="geometry"/>
        </mxCell>
        <mxCell id="Zrgbr4FFBKcwLw_hIRoL-123" value="&lt;span&gt;vouchers&lt;/span&gt;" style="whiteSpace=wrap;html=1;rounded=1;shadow=1;comic=0;labelBackgroundColor=none;strokeColor=#000000;strokeWidth=2;fillColor=#FFFFFF;fontFamily=Verdana;fontSize=12;fontColor=#000000;align=center;arcSize=50;" vertex="1" parent="1">
          <mxGeometry x="480" y="700" width="100" height="20" as="geometry"/>
        </mxCell>
        <mxCell id="Zrgbr4FFBKcwLw_hIRoL-125" style="edgeStyle=none;rounded=0;orthogonalLoop=1;jettySize=auto;html=1;exitX=0.5;exitY=1;exitDx=0;exitDy=0;startArrow=none;startFill=0;endArrow=none;endFill=0;" edge="1" parent="1" source="Zrgbr4FFBKcwLw_hIRoL-124" target="SIIoMTfQmOXYOQuS74W--26">
          <mxGeometry relative="1" as="geometry"/>
        </mxCell>
        <mxCell id="Zrgbr4FFBKcwLw_hIRoL-124" value="&lt;span&gt;delivery cost&lt;/span&gt;" style="whiteSpace=wrap;html=1;rounded=1;shadow=1;comic=0;labelBackgroundColor=none;strokeColor=#000000;strokeWidth=2;fillColor=#FFFFFF;fontFamily=Verdana;fontSize=12;fontColor=#000000;align=center;arcSize=50;" vertex="1" parent="1">
          <mxGeometry x="558" y="660" width="100" height="20" as="geometry"/>
        </mxCell>
        <mxCell id="Zrgbr4FFBKcwLw_hIRoL-127" value="bank account details" style="whiteSpace=wrap;html=1;rounded=1;shadow=1;comic=0;labelBackgroundColor=none;strokeColor=#000000;strokeWidth=2;fillColor=#FFFFFF;fontFamily=Verdana;fontSize=12;fontColor=#000000;align=center;arcSize=50;" vertex="1" parent="1">
          <mxGeometry x="1572" y="782.5" width="100" height="40" as="geometry"/>
        </mxCell>
        <mxCell id="Zrgbr4FFBKcwLw_hIRoL-148" style="edgeStyle=none;rounded=0;orthogonalLoop=1;jettySize=auto;html=1;exitX=1;exitY=0.75;exitDx=0;exitDy=0;entryX=0.5;entryY=0;entryDx=0;entryDy=0;startArrow=none;startFill=0;endArrow=none;endFill=0;" edge="1" parent="1" source="Zrgbr4FFBKcwLw_hIRoL-128" target="udSbVJcAe-gZIi7dI9ab-51">
          <mxGeometry relative="1" as="geometry"/>
        </mxCell>
        <mxCell id="Zrgbr4FFBKcwLw_hIRoL-128" value="contact details" style="whiteSpace=wrap;html=1;rounded=1;shadow=1;comic=0;labelBackgroundColor=none;strokeColor=#000000;strokeWidth=2;fillColor=#FFFFFF;fontFamily=Verdana;fontSize=12;fontColor=#000000;align=center;arcSize=50;" vertex="1" parent="1">
          <mxGeometry x="1816" y="580.5" width="100" height="40" as="geometry"/>
        </mxCell>
        <mxCell id="Zrgbr4FFBKcwLw_hIRoL-134" style="edgeStyle=none;rounded=0;orthogonalLoop=1;jettySize=auto;html=1;exitX=1;exitY=0.5;exitDx=0;exitDy=0;entryX=0;entryY=0.5;entryDx=0;entryDy=0;entryPerimeter=0;startArrow=none;startFill=0;endArrow=none;endFill=0;" edge="1" parent="1" source="Zrgbr4FFBKcwLw_hIRoL-131" target="Zrgbr4FFBKcwLw_hIRoL-38">
          <mxGeometry relative="1" as="geometry"/>
        </mxCell>
        <mxCell id="Zrgbr4FFBKcwLw_hIRoL-131" value="&amp;nbsp;product_id" style="whiteSpace=wrap;html=1;rounded=1;shadow=1;comic=0;labelBackgroundColor=none;strokeColor=#d79b00;strokeWidth=2;fillColor=#ffe6cc;fontFamily=Verdana;fontSize=12;align=center;arcSize=50;" vertex="1" parent="1">
          <mxGeometry x="458" y="1035" width="100" height="30" as="geometry"/>
        </mxCell>
        <mxCell id="Zrgbr4FFBKcwLw_hIRoL-136" style="edgeStyle=none;rounded=0;orthogonalLoop=1;jettySize=auto;html=1;exitX=0.5;exitY=1;exitDx=0;exitDy=0;entryX=0.25;entryY=1;entryDx=0;entryDy=0;startArrow=none;startFill=0;endArrow=none;endFill=0;" edge="1" parent="1" source="xfP3-g7Ia95GO5ueu19k-31" target="xfP3-g7Ia95GO5ueu19k-31">
          <mxGeometry relative="1" as="geometry"/>
        </mxCell>
        <mxCell id="Zrgbr4FFBKcwLw_hIRoL-139" style="edgeStyle=none;rounded=0;orthogonalLoop=1;jettySize=auto;html=1;exitX=1;exitY=0.5;exitDx=0;exitDy=0;entryX=0;entryY=0.75;entryDx=0;entryDy=0;startArrow=none;startFill=0;endArrow=none;endFill=0;" edge="1" parent="1" source="Zrgbr4FFBKcwLw_hIRoL-138" target="xfP3-g7Ia95GO5ueu19k-61">
          <mxGeometry relative="1" as="geometry"/>
        </mxCell>
        <mxCell id="Zrgbr4FFBKcwLw_hIRoL-138" value="hours" style="whiteSpace=wrap;html=1;rounded=1;shadow=1;comic=0;labelBackgroundColor=none;strokeColor=#000000;strokeWidth=2;fillColor=#FFFFFF;fontFamily=Verdana;fontSize=12;fontColor=#000000;align=center;arcSize=50;" vertex="1" parent="1">
          <mxGeometry x="1254" y="630.5" width="100" height="20" as="geometry"/>
        </mxCell>
        <mxCell id="Zrgbr4FFBKcwLw_hIRoL-141" style="edgeStyle=none;rounded=0;orthogonalLoop=1;jettySize=auto;html=1;exitX=1;exitY=0.75;exitDx=0;exitDy=0;startArrow=none;startFill=0;endArrow=none;endFill=0;" edge="1" parent="1" source="Zrgbr4FFBKcwLw_hIRoL-140" target="xfP3-g7Ia95GO5ueu19k-61">
          <mxGeometry relative="1" as="geometry"/>
        </mxCell>
        <mxCell id="Zrgbr4FFBKcwLw_hIRoL-140" value="holidays" style="whiteSpace=wrap;html=1;rounded=1;shadow=1;comic=0;labelBackgroundColor=none;strokeColor=#000000;strokeWidth=2;fillColor=#FFFFFF;fontFamily=Verdana;fontSize=12;fontColor=#000000;align=center;arcSize=50;" vertex="1" parent="1">
          <mxGeometry x="1241" y="575" width="100" height="20" as="geometry"/>
        </mxCell>
        <mxCell id="Zrgbr4FFBKcwLw_hIRoL-154" style="edgeStyle=none;rounded=0;orthogonalLoop=1;jettySize=auto;html=1;exitX=1;exitY=0.5;exitDx=0;exitDy=0;entryX=0;entryY=0.25;entryDx=0;entryDy=0;startArrow=none;startFill=0;endArrow=none;endFill=0;" edge="1" parent="1" source="Zrgbr4FFBKcwLw_hIRoL-151" target="xfP3-g7Ia95GO5ueu19k-1">
          <mxGeometry relative="1" as="geometry"/>
        </mxCell>
        <mxCell id="Zrgbr4FFBKcwLw_hIRoL-151" value="&lt;span&gt;supply date&lt;/span&gt;" style="whiteSpace=wrap;html=1;rounded=1;shadow=1;comic=0;labelBackgroundColor=none;strokeColor=#000000;strokeWidth=2;fillColor=#FFFFFF;fontFamily=Verdana;fontSize=12;fontColor=#000000;align=center;arcSize=50;" vertex="1" parent="1">
          <mxGeometry x="820" y="967.2646484375" width="100" height="20" as="geometry"/>
        </mxCell>
        <mxCell id="Zrgbr4FFBKcwLw_hIRoL-161" value="&lt;span&gt;phone&lt;/span&gt;" style="whiteSpace=wrap;html=1;rounded=1;shadow=1;comic=0;labelBackgroundColor=none;strokeColor=#000000;strokeWidth=2;fillColor=#FFFFFF;fontFamily=Verdana;fontSize=12;fontColor=#000000;align=center;arcSize=50;" vertex="1" parent="1">
          <mxGeometry x="1144" y="713.5882496553309" width="100" height="20" as="geometry"/>
        </mxCell>
        <mxCell id="Zrgbr4FFBKcwLw_hIRoL-163" value="&lt;span&gt;phone&lt;/span&gt;" style="whiteSpace=wrap;html=1;rounded=1;shadow=1;comic=0;labelBackgroundColor=none;strokeColor=#000000;strokeWidth=2;fillColor=#FFFFFF;fontFamily=Verdana;fontSize=12;fontColor=#000000;align=center;arcSize=50;" vertex="1" parent="1">
          <mxGeometry x="745.5" y="1130.5882496553309" width="100" height="20" as="geometry"/>
        </mxCell>
        <mxCell id="Zrgbr4FFBKcwLw_hIRoL-165" value="derived" style="ellipse;shape=doubleEllipse;whiteSpace=wrap;html=1;" vertex="1" parent="1">
          <mxGeometry x="1703" y="1310" width="100" height="60" as="geometry"/>
        </mxCell>
        <mxCell id="Zrgbr4FFBKcwLw_hIRoL-166" value="Derived" style="whiteSpace=wrap;html=1;rounded=1;shadow=1;comic=0;labelBackgroundColor=none;strokeColor=#000000;strokeWidth=2;fillColor=#FFFFFF;fontFamily=Verdana;fontSize=12;fontColor=#000000;align=center;arcSize=50;dashed=1;dashPattern=1 1;" vertex="1" parent="1">
          <mxGeometry x="1846" y="1330" width="100" height="30" as="geometry"/>
        </mxCell>
      </root>
    </mxGraphModel>
  </diagram>
</mxfile>
